<svg xmlns="http://www.w3.org/2000/svg" width="50" height="px" viewBox="0 0 50 50"><path style="stroke:none;fill-rule:nonzero;fill:#000;fill-opacity:1" d="M26.66 32.914h13.328c.5 0 .832-.332.832-.832v-7.5c0-.5-.332-.832-.832-.832H26.66c-.5 0-.836.332-.836.832v7.5c0 .5.336.832.836.832Zm.832-7.496h11.664v5.832H27.492ZM4.164 22.086h6.664c.5 0 .836-.336.836-.836 0-.5-.336-.832-.836-.832H4.164c-.5 0-.832.332-.832.832 0 .5.332.836.832.836ZM14.164 22.086h6.664c.5 0 .832-.336.832-.836 0-.5-.332-.832-.832-.832h-6.664c-.5 0-.836.332-.836.832 0 .5.336.836.836.836ZM4.164 25.418h10.832c.5 0 .832-.336.832-.836 0-.5-.332-.832-.832-.832H4.164c-.5 0-.832.332-.832.832 0 .5.332.836.832.836ZM20.828 23.75h-2.5c-.5 0-.832.332-.832.832 0 .5.332.836.832.836h2.5c.5 0 .832-.336.832-.836 0-.5-.332-.832-.832-.832Zm0 0"></path><path style="stroke:none;fill-rule:nonzero;fill:#000;fill-opacity:1" d="M49.234 13.422c-.582-.75-1.332-1.168-2.25-1.25l-2-.242V7.922a3.34 3.34 0 0 0-3.332-3.332H3.332A3.343 3.343 0 0 0 0 7.922v26.66a3.343 3.343 0 0 0 2.387 3.191 3.242 3.242 0 0 0 2.945 3.305L43.82 45.41h.332c1.668 0 3.168-1.25 3.332-2.832l2.5-26.742c.082-.832-.168-1.75-.75-2.414Zm-47.566-3H43.32v4.996H1.668Zm1.664-4.168h38.32c.918 0 1.668.75 1.668 1.668v.832H1.668v-.832c0-.918.746-1.668 1.664-1.668ZM1.668 34.582V17.086H43.32v17.496c0 .914-.75 1.664-1.668 1.664H3.332c-.918 0-1.664-.75-1.664-1.664Zm46.648-19.078L45.82 42.246c-.086.914-.918 1.582-1.836 1.5L5.582 39.414a1.687 1.687 0 0 1-1.5-1.5h37.57c1.832 0 3.332-1.5 3.332-3.332V13.504l1.918.168c.418 0 .832.25 1.082.582.25.332.418.832.332 1.25Zm0 0"></path></svg>