<?xml version="1.0" encoding="UTF-8"?>
<svg xmlns="http://www.w3.org/2000/svg" xmlns:xlink="http://www.w3.org/1999/xlink" width="35px" height="35px" viewBox="0 0 35 35" version="1.1">
<g id="surface1">
<path style=" stroke:none;fill-rule:nonzero;fill:rgb(0%,0%,0%);fill-opacity:1;" d="M 35 17.84375 C 35 17.839844 35 17.832031 35 17.824219 C 34.988281 17.386719 34.636719 17.039062 34.191406 17.039062 L 33.980469 17.039062 L 30.714844 10.71875 C 30.578125 10.453125 30.300781 10.289062 30 10.289062 L 24.421875 10.285156 L 24.632812 8.597656 C 24.695312 7.925781 24.484375 7.289062 24.046875 6.808594 C 23.605469 6.324219 22.996094 6.0625 22.320312 6.0625 L 5.007812 6.0625 C 4.574219 6.0625 4.203125 6.398438 4.164062 6.832031 L 3.988281 8.222656 L 13.851562 8.222656 C 14.492188 8.222656 15 8.742188 14.980469 9.382812 C 14.964844 10.023438 14.433594 10.542969 13.792969 10.542969 L 10.503906 10.542969 C 10.503906 10.542969 10.503906 10.546875 10.503906 10.546875 L 0.84375 10.546875 C 0.390625 10.546875 0.0117188 10.914062 0 11.367188 C -0.0117188 11.820312 0.347656 12.1875 0.800781 12.1875 L 13.589844 12.1875 C 14.183594 12.277344 14.628906 12.792969 14.609375 13.414062 C 14.59375 14.097656 14.027344 14.648438 13.347656 14.65625 L 4.527344 14.65625 C 4.070312 14.65625 3.691406 15.027344 3.679688 15.484375 C 3.664062 15.941406 4.027344 16.3125 4.484375 16.3125 L 13.199219 16.3125 C 13.800781 16.394531 14.253906 16.914062 14.238281 17.542969 C 14.21875 18.226562 13.648438 18.785156 12.960938 18.785156 L 2.125 18.785156 C 1.667969 18.785156 1.285156 19.15625 1.273438 19.613281 C 1.261719 20.070312 1.625 20.441406 2.082031 20.441406 L 2.804688 20.441406 L 2.523438 23.410156 C 2.460938 24.082031 2.671875 24.71875 3.109375 25.199219 C 3.546875 25.683594 4.160156 25.945312 4.832031 25.945312 L 5.460938 25.945312 C 5.757812 27.652344 7.230469 28.9375 9.035156 28.9375 C 10.839844 28.9375 12.378906 27.652344 12.769531 25.945312 L 20.574219 25.945312 C 21.203125 25.945312 21.800781 25.707031 22.269531 25.308594 C 22.699219 25.722656 23.265625 25.945312 23.886719 25.945312 L 24.015625 25.945312 C 24.3125 27.652344 25.785156 28.9375 27.589844 28.9375 C 29.394531 28.9375 30.9375 27.652344 31.324219 25.945312 L 31.839844 25.945312 C 33.179688 25.945312 34.371094 24.855469 34.492188 23.515625 L 34.996094 17.921875 C 34.996094 17.914062 34.996094 17.90625 34.996094 17.898438 C 35 17.886719 35 17.878906 35 17.867188 C 35 17.859375 35 17.851562 35 17.84375 Z M 9.078125 27.28125 C 7.9375 27.28125 7.03125 26.351562 7.0625 25.210938 C 7.09375 24.070312 8.046875 23.140625 9.1875 23.140625 C 10.328125 23.140625 11.234375 24.070312 11.203125 25.210938 C 11.175781 26.351562 10.21875 27.28125 9.078125 27.28125 Z M 27.632812 27.28125 C 26.492188 27.28125 25.585938 26.351562 25.617188 25.210938 C 25.648438 24.070312 26.601562 23.140625 27.742188 23.140625 C 28.882812 23.140625 29.789062 24.070312 29.757812 25.210938 C 29.730469 26.351562 28.777344 27.28125 27.632812 27.28125 Z M 32.839844 23.410156 C 32.796875 23.886719 32.359375 24.289062 31.882812 24.289062 L 31.324219 24.289062 C 30.957031 22.679688 29.523438 21.484375 27.785156 21.484375 C 26.046875 21.484375 24.554688 22.679688 24.101562 24.289062 L 23.929688 24.289062 C 23.71875 24.289062 23.53125 24.210938 23.398438 24.066406 C 23.269531 23.921875 23.207031 23.726562 23.226562 23.515625 L 24.269531 11.941406 L 26.667969 11.945312 L 26.289062 16.15625 C 26.226562 16.828125 26.4375 17.464844 26.875 17.949219 C 27.3125 18.429688 27.925781 18.695312 28.601562 18.695312 L 33.265625 18.695312 Z M 32.839844 23.410156 "/>
</g>
</svg>
