<svg xmlns="http://www.w3.org/2000/svg" xmlns:xlink="http://www.w3.org/1999/xlink" zoomAndPan="magnify" preserveAspectRatio="xMidYMid meet" version="1.0" viewBox="0 46.73 111.74 27.54"><defs><g/><clipPath id="adacb1cbf4"><path d="M 6 58 L 11 58 L 11 61.683594 L 6 61.683594 Z M 6 58 " clip-rule="nonzero"/></clipPath><clipPath id="1f0f97b58d"><path d="M 0 51 L 17.035156 51 L 17.035156 61.683594 L 0 61.683594 Z M 0 51 " clip-rule="nonzero"/></clipPath><clipPath id="1338017dd7"><path d="M 0 46.734375 L 17.035156 46.734375 L 17.035156 51 L 0 51 Z M 0 46.734375 " clip-rule="nonzero"/></clipPath><clipPath id="b018d39e33"><path d="M 1.984375 52.8125 L 14.453125 52.8125 L 14.453125 61.703125 L 1.984375 61.703125 Z M 1.984375 52.8125 " clip-rule="nonzero"/></clipPath><clipPath id="278b1b72d6"><path d="M 6.429688 52.8125 L 9.988281 52.8125 C 11.164062 52.8125 12.296875 53.28125 13.128906 54.113281 C 13.964844 54.949219 14.433594 56.078125 14.433594 57.257812 C 14.433594 58.4375 13.964844 59.566406 13.128906 60.402344 C 12.296875 61.234375 11.164062 61.703125 9.988281 61.703125 L 6.429688 61.703125 C 5.25 61.703125 4.121094 61.234375 3.285156 60.402344 C 2.453125 59.566406 1.984375 58.4375 1.984375 57.257812 C 1.984375 56.078125 2.453125 54.949219 3.285156 54.113281 C 4.121094 53.28125 5.25 52.8125 6.429688 52.8125 Z M 6.429688 52.8125 " clip-rule="nonzero"/></clipPath><clipPath id="86eae6898d"><path d="M 6 58 L 11 58 L 11 61.699219 L 6 61.699219 Z M 6 58 " clip-rule="nonzero"/></clipPath><clipPath id="6374fbc9bd"><path d="M 0 51.183594 L 17.121094 51.183594 L 17.121094 61.699219 L 0 61.699219 Z M 0 51.183594 " clip-rule="nonzero"/></clipPath><clipPath id="a59aed7408"><path d="M 4.449219 52.21875 L 12.53125 52.21875 L 12.53125 63 L 4.449219 63 Z M 4.449219 52.21875 " clip-rule="nonzero"/></clipPath><clipPath id="8d190f8e80"><path d="M 4.449219 62 L 12.53125 62 L 12.53125 65 L 4.449219 65 Z M 4.449219 62 " clip-rule="nonzero"/></clipPath><clipPath id="65782ee03e"><path d="M 4.449219 63 L 12.53125 63 L 12.53125 65.167969 L 4.449219 65.167969 Z M 4.449219 63 " clip-rule="nonzero"/></clipPath><clipPath id="c6b0537c75"><path d="M 4.382812 52.113281 L 12.636719 52.113281 L 12.636719 63 L 4.382812 63 Z M 4.382812 52.113281 " clip-rule="nonzero"/></clipPath><clipPath id="8a0a8bef42"><path d="M 4.382812 62 L 12.636719 62 L 12.636719 65 L 4.382812 65 Z M 4.382812 62 " clip-rule="nonzero"/></clipPath><clipPath id="35082c0918"><path d="M 4.382812 64 L 12.636719 64 L 12.636719 65.234375 L 4.382812 65.234375 Z M 4.382812 64 " clip-rule="nonzero"/></clipPath><clipPath id="a8b482ec3b"><path d="M 4.449219 61.734375 L 12.53125 61.734375 L 12.53125 63 L 4.449219 63 Z M 4.449219 61.734375 " clip-rule="nonzero"/></clipPath><clipPath id="11df689bdc"><path d="M 4.449219 62 L 12.53125 62 L 12.53125 65 L 4.449219 65 Z M 4.449219 62 " clip-rule="nonzero"/></clipPath><clipPath id="2e5198530c"><path d="M 4.449219 63 L 12.53125 63 L 12.53125 65.125 L 4.449219 65.125 Z M 4.449219 63 " clip-rule="nonzero"/></clipPath><clipPath id="c90e6d5800"><path d="M 29 46.734375 L 31 46.734375 L 31 48 L 29 48 Z M 29 46.734375 " clip-rule="nonzero"/></clipPath><clipPath id="de492c4af9"><path d="M 33 49 L 34.285156 49 L 34.285156 50 L 33 50 Z M 33 49 " clip-rule="nonzero"/></clipPath><clipPath id="7f902e13ab"><path d="M 25.160156 49 L 26 49 L 26 50 L 25.160156 50 Z M 25.160156 49 " clip-rule="nonzero"/></clipPath><clipPath id="154ccc2352"><path d="M 25.160156 47 L 34 47 L 34 54.035156 L 25.160156 54.035156 Z M 25.160156 47 " clip-rule="nonzero"/></clipPath></defs><path fill="#ff7a00" d="M 6.796875 57.707031 C 6.796875 58.085938 7.105469 58.394531 7.484375 58.394531 L 9.667969 58.394531 C 10.046875 58.394531 10.355469 58.085938 10.355469 57.707031 C 10.355469 57.328125 10.046875 57.019531 9.667969 57.019531 L 7.484375 57.019531 C 7.105469 57.019531 6.796875 57.328125 6.796875 57.707031 " fill-opacity="1" fill-rule="nonzero"/><path fill="#ff7a00" d="M 7.484375 56.746094 L 9.699219 56.746094 C 9.601562 56.507812 9.515625 56.1875 9.511719 55.804688 C 9.507812 55.402344 9.601562 55.078125 9.679688 54.878906 C 9.6875 54.863281 9.679688 54.847656 9.675781 54.84375 C 9.671875 54.835938 9.660156 54.828125 9.644531 54.828125 L 7.488281 54.828125 C 7.472656 54.828125 7.460938 54.835938 7.457031 54.84375 C 7.453125 54.847656 7.449219 54.859375 7.453125 54.875 C 7.546875 55.152344 7.597656 55.445312 7.605469 55.742188 C 7.609375 56.082031 7.554688 56.421875 7.4375 56.746094 Z M 7.484375 56.746094 " fill-opacity="1" fill-rule="nonzero"/><g clip-path="url(#adacb1cbf4)"><path fill="#ff7a00" d="M 10.164062 61.796875 C 9.667969 60.648438 9.71875 59.148438 9.75 58.667969 L 7.394531 58.667969 C 7.429688 59.148438 7.480469 60.648438 6.984375 61.796875 Z M 10.164062 61.796875 " fill-opacity="1" fill-rule="nonzero"/></g><path fill="#ff7a00" d="M 9.222656 53.902344 C 9.222656 53.542969 8.933594 53.25 8.574219 53.25 C 8.214844 53.25 7.921875 53.542969 7.921875 53.902344 C 7.921875 54.261719 8.214844 54.554688 8.574219 54.554688 C 8.933594 54.554688 9.222656 54.261719 9.222656 53.902344 " fill-opacity="1" fill-rule="nonzero"/><g clip-path="url(#1f0f97b58d)"><path fill="#ff7a00" d="M 0.03125 56.644531 L 0.03125 61.347656 C 0.03125 61.59375 0.195312 61.796875 0.398438 61.796875 L 6.683594 61.796875 C 7.246094 60.617188 7.140625 58.902344 7.117188 58.59375 C 6.769531 58.449219 6.523438 58.105469 6.523438 57.707031 C 6.523438 57.308594 6.765625 56.964844 7.113281 56.820312 C 7.261719 56.472656 7.335938 56.113281 7.332031 55.746094 C 7.328125 55.480469 7.28125 55.214844 7.195312 54.960938 C 7.164062 54.867188 7.179688 54.761719 7.238281 54.683594 C 7.292969 54.601562 7.390625 54.554688 7.488281 54.554688 L 7.917969 54.554688 C 7.75 54.386719 7.648438 54.15625 7.648438 53.902344 C 7.648438 53.390625 8.0625 52.976562 8.574219 52.976562 C 9.082031 52.976562 9.496094 53.390625 9.496094 53.902344 C 9.496094 54.15625 9.394531 54.386719 9.226562 54.554688 L 9.644531 54.554688 C 9.746094 54.554688 9.84375 54.605469 9.898438 54.6875 C 9.957031 54.769531 9.972656 54.878906 9.933594 54.976562 C 9.863281 55.15625 9.78125 55.441406 9.785156 55.800781 C 9.789062 56.25 9.921875 56.601562 10.03125 56.820312 C 10.382812 56.964844 10.628906 57.304688 10.628906 57.707031 C 10.628906 58.109375 10.378906 58.453125 10.03125 58.59375 C 10.007812 58.90625 9.90625 60.617188 10.464844 61.796875 L 16.75 61.796875 C 16.953125 61.796875 17.117188 61.59375 17.117188 61.347656 L 17.117188 51.175781 L 0.03125 51.175781 Z M 0.03125 56.644531 " fill-opacity="1" fill-rule="nonzero"/></g><g clip-path="url(#1338017dd7)"><path fill="#ff7a00" d="M 16.75 46.742188 L 0.398438 46.742188 C 0.195312 46.742188 0.03125 46.941406 0.03125 47.191406 L 0.03125 50.902344 L 17.117188 50.902344 L 17.117188 47.191406 C 17.117188 46.941406 16.953125 46.742188 16.75 46.742188 M 2.414062 49.59375 C 1.957031 49.59375 1.585938 49.222656 1.585938 48.765625 C 1.585938 48.3125 1.957031 47.9375 2.414062 47.9375 C 2.871094 47.9375 3.242188 48.3125 3.242188 48.765625 C 3.242188 49.222656 2.871094 49.59375 2.414062 49.59375 M 5.183594 49.59375 C 4.726562 49.59375 4.351562 49.222656 4.351562 48.765625 C 4.351562 48.3125 4.726562 47.9375 5.183594 47.9375 C 5.640625 47.9375 6.011719 48.3125 6.011719 48.765625 C 6.011719 49.222656 5.640625 49.59375 5.183594 49.59375 M 7.953125 49.59375 C 7.496094 49.59375 7.125 49.222656 7.125 48.765625 C 7.125 48.3125 7.496094 47.9375 7.953125 47.9375 C 8.410156 47.9375 8.78125 48.3125 8.78125 48.765625 C 8.78125 49.222656 8.410156 49.59375 7.953125 49.59375 " fill-opacity="1" fill-rule="nonzero"/></g><g clip-path="url(#b018d39e33)"><g clip-path="url(#278b1b72d6)"><path fill="#000000" d="M 1.984375 52.8125 L 14.417969 52.8125 L 14.417969 61.703125 L 1.984375 61.703125 Z M 1.984375 52.8125 " fill-opacity="1" fill-rule="nonzero"/></g></g><path fill="#000000" d="M 6.796875 57.707031 C 6.796875 58.085938 7.105469 58.394531 7.484375 58.394531 L 9.667969 58.394531 C 10.046875 58.394531 10.355469 58.085938 10.355469 57.707031 C 10.355469 57.328125 10.046875 57.019531 9.667969 57.019531 L 7.484375 57.019531 C 7.105469 57.019531 6.796875 57.328125 6.796875 57.707031 " fill-opacity="1" fill-rule="nonzero"/><path fill="#000000" d="M 7.484375 56.746094 L 9.699219 56.746094 C 9.601562 56.507812 9.515625 56.1875 9.511719 55.804688 C 9.507812 55.402344 9.601562 55.078125 9.679688 54.878906 C 9.6875 54.863281 9.679688 54.847656 9.675781 54.84375 C 9.671875 54.835938 9.660156 54.828125 9.644531 54.828125 L 7.488281 54.828125 C 7.472656 54.828125 7.460938 54.835938 7.457031 54.84375 C 7.453125 54.847656 7.449219 54.859375 7.453125 54.875 C 7.546875 55.152344 7.597656 55.445312 7.605469 55.742188 C 7.609375 56.082031 7.554688 56.421875 7.4375 56.746094 Z M 7.484375 56.746094 " fill-opacity="1" fill-rule="nonzero"/><g clip-path="url(#86eae6898d)"><path fill="#000000" d="M 10.164062 61.796875 C 9.667969 60.648438 9.71875 59.148438 9.75 58.667969 L 7.394531 58.667969 C 7.429688 59.148438 7.480469 60.648438 6.984375 61.796875 Z M 10.164062 61.796875 " fill-opacity="1" fill-rule="nonzero"/></g><path fill="#000000" d="M 9.222656 53.902344 C 9.222656 53.542969 8.933594 53.25 8.574219 53.25 C 8.214844 53.25 7.921875 53.542969 7.921875 53.902344 C 7.921875 54.261719 8.214844 54.554688 8.574219 54.554688 C 8.933594 54.554688 9.222656 54.261719 9.222656 53.902344 " fill-opacity="1" fill-rule="nonzero"/><g clip-path="url(#6374fbc9bd)"><path fill="#000000" d="M 0.03125 56.644531 L 0.03125 61.347656 C 0.03125 61.59375 0.195312 61.796875 0.398438 61.796875 L 6.683594 61.796875 C 7.246094 60.617188 7.140625 58.902344 7.117188 58.59375 C 6.769531 58.449219 6.523438 58.105469 6.523438 57.707031 C 6.523438 57.308594 6.765625 56.964844 7.113281 56.820312 C 7.261719 56.472656 7.335938 56.113281 7.332031 55.746094 C 7.328125 55.480469 7.28125 55.214844 7.195312 54.964844 C 7.164062 54.867188 7.179688 54.761719 7.238281 54.683594 C 7.292969 54.601562 7.390625 54.554688 7.488281 54.554688 L 7.917969 54.554688 C 7.75 54.386719 7.648438 54.15625 7.648438 53.902344 C 7.648438 53.390625 8.0625 52.976562 8.574219 52.976562 C 9.082031 52.976562 9.496094 53.390625 9.496094 53.902344 C 9.496094 54.15625 9.394531 54.386719 9.226562 54.554688 L 9.644531 54.554688 C 9.746094 54.554688 9.84375 54.605469 9.898438 54.6875 C 9.957031 54.769531 9.972656 54.878906 9.933594 54.976562 C 9.863281 55.15625 9.78125 55.441406 9.785156 55.800781 C 9.789062 56.25 9.921875 56.601562 10.03125 56.820312 C 10.382812 56.964844 10.628906 57.304688 10.628906 57.707031 C 10.628906 58.109375 10.378906 58.453125 10.03125 58.59375 C 10.007812 58.90625 9.90625 60.617188 10.464844 61.796875 L 16.75 61.796875 C 16.953125 61.796875 17.117188 61.59375 17.117188 61.347656 L 17.117188 51.175781 L 0.03125 51.175781 Z M 0.03125 56.644531 " fill-opacity="1" fill-rule="nonzero"/></g><g clip-path="url(#a59aed7408)"><path fill="#f6f6f6" d="M 10.507812 52.257812 C 10.46875 52.28125 10.230469 52.429688 9.976562 52.585938 C 9.058594 53.160156 9.132812 53.121094 8.886719 53.152344 C 8.765625 53.167969 8.519531 53.21875 8.34375 53.265625 C 7.105469 53.578125 6.109375 54.347656 5.378906 55.554688 C 4.765625 56.570312 4.449219 57.886719 4.492188 59.242188 C 4.535156 60.535156 4.890625 61.789062 5.460938 62.65625 L 5.578125 62.835938 L 11.183594 62.835938 L 11.273438 62.699219 C 11.320312 62.621094 11.394531 62.472656 11.433594 62.363281 C 11.496094 62.183594 11.5 62.148438 11.5 61.851562 C 11.5 61.535156 11.492188 61.457031 11.394531 61.128906 C 11.335938 60.933594 11.152344 60.460938 11.058594 60.273438 C 10.789062 59.738281 10.527344 59.359375 9.792969 58.441406 C 9.195312 57.6875 9.207031 57.699219 9.121094 57.535156 C 9.0625 57.421875 9.039062 57.394531 8.964844 57.367188 C 8.804688 57.3125 8.558594 57.140625 8.390625 56.964844 C 7.910156 56.460938 7.722656 55.800781 7.898438 55.230469 C 7.984375 54.949219 8.09375 54.773438 8.3125 54.554688 C 8.425781 54.441406 8.507812 54.371094 8.496094 54.394531 C 8.488281 54.417969 8.460938 54.488281 8.4375 54.542969 C 8.324219 54.832031 8.285156 55.464844 8.359375 55.773438 C 8.378906 55.859375 8.445312 56.039062 8.511719 56.167969 C 8.605469 56.367188 8.652344 56.429688 8.820312 56.597656 C 9.0625 56.839844 9.25 56.9375 9.726562 57.074219 C 10.078125 57.171875 10.226562 57.246094 10.386719 57.398438 C 10.570312 57.574219 10.671875 57.773438 10.734375 58.082031 C 10.753906 58.175781 10.773438 58.261719 10.777344 58.261719 C 10.78125 58.269531 11.015625 58.269531 11.296875 58.265625 L 11.808594 58.257812 L 11.660156 58.042969 C 11.578125 57.925781 11.476562 57.777344 11.429688 57.714844 L 11.347656 57.605469 L 11.449219 57.695312 C 11.5 57.742188 11.621094 57.851562 11.707031 57.933594 L 11.863281 58.085938 L 12.085938 58.09375 L 12.3125 58.101562 L 12.363281 57.886719 C 12.472656 57.433594 12.554688 57.023438 12.535156 56.996094 C 12.527344 56.984375 12.285156 56.632812 12 56.226562 C 11.710938 55.8125 11.273438 55.1875 11.027344 54.828125 C 10.777344 54.472656 10.503906 54.078125 10.421875 53.957031 L 10.269531 53.738281 L 10.382812 53.148438 C 10.445312 52.828125 10.519531 52.488281 10.542969 52.398438 C 10.570312 52.308594 10.585938 52.226562 10.582031 52.222656 C 10.578125 52.222656 10.542969 52.234375 10.507812 52.257812 Z M 10.320312 54.820312 C 10.390625 54.933594 10.566406 55.292969 10.554688 55.304688 C 10.542969 55.316406 10.113281 55.179688 10.058594 55.144531 C 10.011719 55.113281 9.882812 54.945312 9.765625 54.75 C 9.753906 54.730469 9.808594 54.722656 10.003906 54.722656 L 10.257812 54.722656 Z M 6.007812 55.585938 C 5.84375 55.996094 5.621094 57.058594 5.570312 57.660156 C 5.542969 57.996094 5.542969 58.632812 5.570312 58.980469 C 5.605469 59.398438 5.65625 59.875 5.675781 59.902344 C 5.683594 59.921875 5.683594 59.925781 5.667969 59.910156 C 5.621094 59.859375 5.457031 59.464844 5.378906 59.214844 C 5.25 58.777344 5.230469 58.652344 5.214844 58.179688 C 5.191406 57.390625 5.308594 56.789062 5.617188 56.132812 C 5.714844 55.921875 6.058594 55.363281 6.078125 55.382812 C 6.082031 55.386719 6.050781 55.480469 6.007812 55.585938 Z M 6.007812 55.585938 " fill-opacity="1" fill-rule="nonzero"/></g><g clip-path="url(#8d190f8e80)"><path fill="#f6f6f6" d="M 5.675781 62.835938 C 5.664062 63.003906 5.5625 63.214844 5.433594 63.359375 C 5.378906 63.421875 5.234375 63.539062 5.109375 63.625 C 4.984375 63.710938 4.855469 63.808594 4.820312 63.84375 C 4.757812 63.914062 4.6875 64.011719 4.6875 64.03125 C 4.6875 64.039062 6.351562 64.042969 8.382812 64.046875 C 12.066406 64.046875 12.074219 64.046875 12.050781 64.003906 C 12 63.902344 11.835938 63.753906 11.625 63.613281 C 11.5 63.53125 11.359375 63.417969 11.308594 63.359375 C 11.191406 63.226562 11.066406 62.96875 11.046875 62.816406 L 11.03125 62.699219 L 5.691406 62.699219 Z M 6.769531 63.105469 C 6.875 63.214844 6.769531 63.488281 6.574219 63.597656 C 6.285156 63.757812 6.160156 63.480469 6.394531 63.199219 C 6.507812 63.066406 6.683594 63.023438 6.769531 63.105469 Z M 6.769531 63.105469 " fill-opacity="1" fill-rule="nonzero"/></g><g clip-path="url(#65782ee03e)"><path fill="#f6f6f6" d="M 4.929688 63.96875 C 4.8125 63.992188 4.726562 64.058594 4.679688 64.15625 C 4.632812 64.257812 4.628906 64.808594 4.675781 64.921875 C 4.714844 65.019531 4.851562 65.136719 4.941406 65.152344 C 4.984375 65.15625 6.558594 65.160156 8.445312 65.15625 C 11.867188 65.152344 11.871094 65.152344 11.933594 65.105469 C 12.066406 65.003906 12.085938 64.957031 12.101562 64.660156 C 12.128906 64.210938 12.09375 64.089844 11.898438 63.992188 L 11.796875 63.941406 L 8.40625 63.945312 C 6.519531 63.945312 4.976562 63.957031 4.929688 63.96875 Z M 6.242188 64.210938 C 6.316406 64.25 6.332031 64.34375 6.273438 64.402344 C 6.226562 64.449219 6.203125 64.449219 5.675781 64.457031 C 5.144531 64.464844 5.125 64.460938 5.066406 64.417969 C 5.03125 64.390625 5.003906 64.351562 5.003906 64.328125 C 5.003906 64.273438 5.09375 64.195312 5.175781 64.183594 C 5.316406 64.164062 6.195312 64.1875 6.242188 64.210938 Z M 6.242188 64.210938 " fill-opacity="1" fill-rule="nonzero"/></g><g clip-path="url(#c6b0537c75)"><path fill="#f6f6f6" d="M 10.539062 52.152344 C 10.5 52.175781 10.257812 52.328125 10 52.488281 C 9.0625 53.070312 9.140625 53.03125 8.890625 53.0625 C 8.769531 53.082031 8.519531 53.128906 8.339844 53.175781 C 7.082031 53.496094 6.066406 54.277344 5.328125 55.503906 C 4.703125 56.535156 4.382812 57.875 4.425781 59.25 C 4.46875 60.566406 4.828125 61.839844 5.410156 62.722656 L 5.53125 62.902344 L 11.226562 62.902344 L 11.316406 62.765625 C 11.363281 62.6875 11.4375 62.535156 11.476562 62.425781 C 11.542969 62.238281 11.546875 62.203125 11.546875 61.902344 C 11.546875 61.582031 11.539062 61.503906 11.441406 61.167969 C 11.382812 60.96875 11.191406 60.488281 11.097656 60.300781 C 10.824219 59.757812 10.554688 59.371094 9.8125 58.4375 C 9.207031 57.671875 9.214844 57.683594 9.128906 57.515625 C 9.070312 57.402344 9.046875 57.371094 8.972656 57.347656 C 8.808594 57.289062 8.558594 57.113281 8.390625 56.9375 C 7.898438 56.425781 7.710938 55.753906 7.886719 55.175781 C 7.976562 54.890625 8.082031 54.710938 8.308594 54.484375 C 8.421875 54.371094 8.507812 54.300781 8.496094 54.324219 C 8.484375 54.351562 8.457031 54.417969 8.433594 54.476562 C 8.320312 54.769531 8.277344 55.414062 8.355469 55.726562 C 8.375 55.8125 8.445312 55.996094 8.507812 56.125 C 8.605469 56.328125 8.652344 56.390625 8.824219 56.5625 C 9.070312 56.808594 9.257812 56.910156 9.746094 57.046875 C 10.101562 57.148438 10.253906 57.222656 10.414062 57.375 C 10.601562 57.554688 10.703125 57.761719 10.769531 58.070312 C 10.789062 58.167969 10.808594 58.253906 10.8125 58.257812 C 10.816406 58.261719 11.050781 58.261719 11.339844 58.257812 L 11.859375 58.25 L 11.710938 58.035156 C 11.625 57.914062 11.519531 57.761719 11.476562 57.699219 L 11.390625 57.585938 L 11.492188 57.679688 C 11.546875 57.726562 11.667969 57.839844 11.753906 57.921875 L 11.917969 58.074219 L 12.144531 58.085938 L 12.371094 58.089844 L 12.421875 57.871094 C 12.535156 57.414062 12.617188 56.996094 12.601562 56.96875 C 12.589844 56.957031 12.34375 56.601562 12.054688 56.183594 C 11.761719 55.765625 11.316406 55.128906 11.066406 54.765625 C 10.8125 54.402344 10.535156 54.003906 10.449219 53.878906 L 10.292969 53.65625 L 10.410156 53.058594 C 10.476562 52.734375 10.550781 52.390625 10.574219 52.292969 C 10.601562 52.203125 10.617188 52.121094 10.613281 52.117188 C 10.609375 52.117188 10.574219 52.128906 10.539062 52.152344 Z M 10.347656 54.757812 C 10.417969 54.871094 10.597656 55.238281 10.585938 55.25 C 10.574219 55.261719 10.140625 55.125 10.082031 55.085938 C 10.03125 55.054688 9.90625 54.882812 9.78125 54.683594 C 9.769531 54.664062 9.828125 54.65625 10.027344 54.65625 L 10.285156 54.65625 Z M 5.964844 55.539062 C 5.796875 55.949219 5.570312 57.03125 5.519531 57.644531 C 5.492188 57.984375 5.492188 58.632812 5.519531 58.988281 C 5.554688 59.410156 5.609375 59.894531 5.625 59.921875 C 5.636719 59.941406 5.636719 59.945312 5.621094 59.929688 C 5.570312 59.878906 5.40625 59.476562 5.328125 59.222656 C 5.195312 58.777344 5.171875 58.652344 5.160156 58.171875 C 5.136719 57.367188 5.257812 56.757812 5.566406 56.089844 C 5.667969 55.875 6.015625 55.308594 6.039062 55.328125 C 6.042969 55.332031 6.007812 55.425781 5.964844 55.539062 Z M 5.964844 55.539062 " fill-opacity="1" fill-rule="nonzero"/></g><g clip-path="url(#8a0a8bef42)"><path fill="#f6f6f6" d="M 5.628906 62.902344 C 5.613281 63.074219 5.511719 63.289062 5.382812 63.4375 C 5.328125 63.5 5.179688 63.617188 5.050781 63.707031 C 4.921875 63.789062 4.792969 63.890625 4.761719 63.925781 C 4.695312 63.996094 4.625 64.097656 4.625 64.121094 C 4.625 64.125 6.316406 64.128906 8.378906 64.132812 C 12.121094 64.136719 12.132812 64.136719 12.105469 64.089844 C 12.054688 63.988281 11.886719 63.835938 11.671875 63.691406 C 11.546875 63.609375 11.402344 63.496094 11.351562 63.433594 C 11.230469 63.300781 11.109375 63.039062 11.085938 62.882812 L 11.070312 62.765625 L 5.640625 62.765625 Z M 6.738281 63.179688 C 6.847656 63.289062 6.738281 63.566406 6.542969 63.675781 C 6.25 63.839844 6.121094 63.558594 6.359375 63.273438 C 6.472656 63.136719 6.652344 63.09375 6.738281 63.179688 Z M 6.738281 63.179688 " fill-opacity="1" fill-rule="nonzero"/></g><g clip-path="url(#35082c0918)"><path fill="#f6f6f6" d="M 4.867188 64.050781 C 4.75 64.082031 4.660156 64.148438 4.617188 64.242188 C 4.566406 64.347656 4.5625 64.910156 4.609375 65.023438 C 4.648438 65.121094 4.789062 65.238281 4.882812 65.257812 C 4.921875 65.261719 6.527344 65.265625 8.441406 65.261719 C 11.917969 65.257812 11.925781 65.257812 11.988281 65.207031 C 12.121094 65.105469 12.140625 65.058594 12.160156 64.753906 C 12.1875 64.300781 12.148438 64.179688 11.949219 64.078125 L 11.847656 64.027344 L 8.402344 64.03125 C 6.484375 64.03125 4.917969 64.042969 4.867188 64.050781 Z M 6.203125 64.300781 C 6.28125 64.34375 6.292969 64.433594 6.234375 64.492188 C 6.1875 64.542969 6.164062 64.542969 5.628906 64.550781 C 5.089844 64.558594 5.066406 64.554688 5.007812 64.507812 C 4.972656 64.480469 4.945312 64.441406 4.945312 64.421875 C 4.945312 64.363281 5.039062 64.285156 5.117188 64.273438 C 5.261719 64.253906 6.15625 64.277344 6.203125 64.300781 Z M 6.203125 64.300781 " fill-opacity="1" fill-rule="nonzero"/></g><g clip-path="url(#a8b482ec3b)"><path fill="#000000" d="M 10.492188 52.257812 C 10.453125 52.28125 10.214844 52.429688 9.960938 52.585938 C 9.042969 53.160156 9.121094 53.121094 8.871094 53.15625 C 8.753906 53.171875 8.507812 53.21875 8.332031 53.265625 C 7.097656 53.578125 6.101562 54.351562 5.378906 55.554688 C 4.765625 56.574219 4.449219 57.890625 4.492188 59.246094 C 4.535156 60.539062 4.886719 61.796875 5.457031 62.660156 L 5.574219 62.839844 L 11.167969 62.839844 L 11.253906 62.703125 C 11.300781 62.628906 11.375 62.480469 11.410156 62.371094 C 11.476562 62.1875 11.480469 62.152344 11.480469 61.855469 C 11.480469 61.539062 11.46875 61.464844 11.375 61.132812 C 11.316406 60.9375 11.132812 60.464844 11.039062 60.277344 C 10.769531 59.742188 10.507812 59.363281 9.777344 58.441406 C 9.183594 57.691406 9.191406 57.703125 9.105469 57.539062 C 9.050781 57.425781 9.027344 57.394531 8.953125 57.371094 C 8.792969 57.316406 8.546875 57.144531 8.382812 56.96875 C 7.902344 56.464844 7.714844 55.804688 7.890625 55.230469 C 7.976562 54.953125 8.082031 54.777344 8.300781 54.554688 C 8.414062 54.441406 8.496094 54.371094 8.484375 54.394531 C 8.476562 54.421875 8.449219 54.488281 8.425781 54.546875 C 8.3125 54.835938 8.273438 55.46875 8.347656 55.773438 C 8.367188 55.859375 8.433594 56.039062 8.5 56.167969 C 8.59375 56.371094 8.640625 56.429688 8.808594 56.601562 C 9.046875 56.84375 9.234375 56.941406 9.714844 57.078125 C 10.0625 57.175781 10.210938 57.25 10.367188 57.402344 C 10.550781 57.578125 10.652344 57.777344 10.714844 58.082031 C 10.734375 58.179688 10.753906 58.265625 10.757812 58.265625 C 10.761719 58.269531 10.996094 58.269531 11.277344 58.269531 L 11.789062 58.261719 L 11.640625 58.046875 C 11.558594 57.929688 11.453125 57.78125 11.410156 57.71875 L 11.328125 57.605469 L 11.425781 57.695312 C 11.480469 57.746094 11.597656 57.855469 11.683594 57.9375 L 11.84375 58.089844 L 12.289062 58.105469 L 12.339844 57.890625 C 12.449219 57.4375 12.53125 57.027344 12.515625 57 C 12.503906 56.988281 12.261719 56.636719 11.976562 56.226562 C 11.691406 55.816406 11.253906 55.1875 11.007812 54.828125 C 10.761719 54.472656 10.488281 54.078125 10.40625 53.957031 L 10.25 53.738281 L 10.367188 53.148438 C 10.429688 52.828125 10.5 52.488281 10.527344 52.398438 C 10.550781 52.308594 10.566406 52.226562 10.566406 52.222656 C 10.558594 52.222656 10.527344 52.234375 10.492188 52.257812 Z M 10.304688 54.820312 C 10.375 54.933594 10.550781 55.292969 10.539062 55.304688 C 10.523438 55.316406 10.097656 55.183594 10.042969 55.144531 C 9.996094 55.113281 9.867188 54.945312 9.75 54.75 C 9.738281 54.730469 9.792969 54.722656 9.988281 54.722656 L 10.242188 54.722656 Z M 6.003906 55.589844 C 5.839844 55.996094 5.617188 57.0625 5.566406 57.664062 C 5.539062 57.996094 5.539062 58.636719 5.566406 58.984375 C 5.601562 59.402344 5.65625 59.878906 5.671875 59.90625 C 5.683594 59.925781 5.679688 59.929688 5.664062 59.914062 C 5.617188 59.863281 5.453125 59.46875 5.378906 59.21875 C 5.246094 58.78125 5.226562 58.65625 5.214844 58.183594 C 5.191406 57.390625 5.308594 56.789062 5.613281 56.132812 C 5.710938 55.921875 6.054688 55.363281 6.074219 55.382812 C 6.078125 55.386719 6.046875 55.480469 6.003906 55.589844 Z M 6.003906 55.589844 " fill-opacity="1" fill-rule="nonzero"/></g><g clip-path="url(#11df689bdc)"><path fill="#000000" d="M 5.671875 62.839844 C 5.660156 63.011719 5.558594 63.222656 5.433594 63.367188 C 5.378906 63.429688 5.230469 63.546875 5.105469 63.632812 C 4.980469 63.714844 4.851562 63.816406 4.820312 63.847656 C 4.757812 63.917969 4.6875 64.019531 4.6875 64.039062 C 4.6875 64.046875 6.347656 64.050781 8.371094 64.050781 C 12.046875 64.054688 12.054688 64.054688 12.03125 64.007812 C 11.976562 63.910156 11.8125 63.761719 11.601562 63.617188 C 11.480469 63.535156 11.339844 63.421875 11.289062 63.363281 C 11.171875 63.230469 11.050781 62.976562 11.027344 62.824219 L 11.011719 62.703125 L 5.6875 62.703125 Z M 6.761719 63.113281 C 6.871094 63.21875 6.761719 63.492188 6.570312 63.601562 C 6.28125 63.765625 6.15625 63.488281 6.390625 63.203125 C 6.503906 63.070312 6.675781 63.027344 6.761719 63.113281 Z M 6.761719 63.113281 " fill-opacity="1" fill-rule="nonzero"/></g><g clip-path="url(#2e5198530c)"><path fill="#000000" d="M 4.925781 63.972656 C 4.8125 64 4.722656 64.066406 4.679688 64.160156 C 4.632812 64.261719 4.628906 64.816406 4.675781 64.925781 C 4.710938 65.023438 4.851562 65.140625 4.941406 65.15625 C 4.980469 65.164062 6.554688 65.167969 8.433594 65.164062 C 11.84375 65.15625 11.851562 65.15625 11.914062 65.109375 C 12.046875 65.011719 12.0625 64.964844 12.082031 64.664062 C 12.109375 64.21875 12.070312 64.097656 11.875 63.996094 L 11.773438 63.949219 L 8.394531 63.949219 C 6.511719 63.953125 4.976562 63.960938 4.925781 63.972656 Z M 6.238281 64.21875 C 6.3125 64.257812 6.328125 64.347656 6.269531 64.40625 C 6.21875 64.453125 6.199219 64.457031 5.671875 64.464844 C 5.144531 64.46875 5.121094 64.46875 5.0625 64.421875 C 5.03125 64.394531 5.003906 64.359375 5.003906 64.335938 C 5.003906 64.277344 5.09375 64.203125 5.171875 64.191406 C 5.316406 64.167969 6.191406 64.191406 6.238281 64.21875 Z M 6.238281 64.21875 " fill-opacity="1" fill-rule="nonzero"/></g><g clip-path="url(#c90e6d5800)"><path fill="#242424" d="M 30.121094 47.128906 C 30.121094 47.238281 30.082031 47.332031 30.003906 47.40625 C 29.929688 47.484375 29.835938 47.523438 29.726562 47.523438 C 29.621094 47.523438 29.527344 47.484375 29.449219 47.40625 C 29.375 47.332031 29.335938 47.238281 29.335938 47.128906 C 29.335938 47.023438 29.375 46.929688 29.449219 46.851562 C 29.527344 46.777344 29.621094 46.738281 29.726562 46.738281 C 29.835938 46.738281 29.929688 46.777344 30.003906 46.851562 C 30.082031 46.929688 30.121094 47.023438 30.121094 47.128906 Z M 30.121094 47.128906 " fill-opacity="1" fill-rule="nonzero"/></g><g clip-path="url(#de492c4af9)"><path fill="#242424" d="M 34.246094 49.46875 C 34.246094 49.578125 34.207031 49.671875 34.128906 49.746094 C 34.054688 49.824219 33.960938 49.863281 33.851562 49.863281 C 33.746094 49.863281 33.652344 49.824219 33.574219 49.746094 C 33.5 49.671875 33.460938 49.578125 33.460938 49.46875 C 33.460938 49.363281 33.5 49.269531 33.574219 49.191406 C 33.652344 49.117188 33.746094 49.078125 33.851562 49.078125 C 33.960938 49.078125 34.054688 49.117188 34.128906 49.191406 C 34.207031 49.269531 34.246094 49.363281 34.246094 49.46875 Z M 34.246094 49.46875 " fill-opacity="1" fill-rule="nonzero"/></g><g clip-path="url(#7f902e13ab)"><path fill="#242424" d="M 25.945312 49.46875 C 25.945312 49.578125 25.90625 49.671875 25.828125 49.746094 C 25.753906 49.824219 25.660156 49.863281 25.550781 49.863281 C 25.445312 49.863281 25.351562 49.824219 25.277344 49.746094 C 25.199219 49.671875 25.160156 49.578125 25.160156 49.46875 C 25.160156 49.363281 25.199219 49.269531 25.277344 49.191406 C 25.351562 49.117188 25.445312 49.078125 25.550781 49.078125 C 25.660156 49.078125 25.753906 49.117188 25.828125 49.191406 C 25.90625 49.269531 25.945312 49.363281 25.945312 49.46875 Z M 25.945312 49.46875 " fill-opacity="1" fill-rule="nonzero"/></g><path fill="#242424" d="M 31.832031 50.050781 C 31.832031 50.132812 31.804688 50.207031 31.742188 50.265625 C 31.683594 50.328125 31.609375 50.355469 31.527344 50.355469 C 31.441406 50.355469 31.367188 50.328125 31.308594 50.265625 C 31.246094 50.207031 31.21875 50.132812 31.21875 50.050781 C 31.21875 49.964844 31.246094 49.890625 31.308594 49.832031 C 31.367188 49.769531 31.441406 49.742188 31.527344 49.742188 C 31.609375 49.742188 31.683594 49.769531 31.742188 49.832031 C 31.804688 49.890625 31.832031 49.964844 31.832031 50.050781 Z M 31.832031 50.050781 " fill-opacity="1" fill-rule="nonzero"/><path fill="#242424" d="M 28.183594 49.996094 C 28.183594 50.078125 28.152344 50.152344 28.089844 50.210938 C 28.03125 50.273438 27.960938 50.300781 27.875 50.300781 C 27.789062 50.300781 27.714844 50.273438 27.65625 50.210938 C 27.597656 50.152344 27.566406 50.078125 27.566406 49.996094 C 27.566406 49.910156 27.597656 49.835938 27.65625 49.777344 C 27.714844 49.714844 27.789062 49.6875 27.875 49.6875 C 27.960938 49.6875 28.03125 49.714844 28.089844 49.777344 C 28.152344 49.835938 28.183594 49.910156 28.183594 49.996094 Z M 28.183594 49.996094 " fill-opacity="1" fill-rule="nonzero"/><g clip-path="url(#154ccc2352)"><path fill="#242424" d="M 33.664062 50.125 L 33.601562 50.210938 L 32.296875 51.960938 C 32.136719 52.175781 31.914062 52.328125 31.664062 52.398438 L 31.527344 50.539062 C 31.523438 50.488281 31.460938 50.476562 31.441406 50.523438 L 30.742188 52.285156 C 30.519531 52.136719 30.363281 51.898438 30.320312 51.625 L 29.804688 48.332031 L 29.804688 48.320312 L 29.707031 47.722656 L 29.09375 51.625 C 29.050781 51.898438 28.894531 52.136719 28.671875 52.285156 L 27.972656 50.523438 C 27.953125 50.476562 27.890625 50.488281 27.886719 50.539062 L 27.75 52.402344 C 27.503906 52.332031 27.28125 52.183594 27.121094 51.96875 L 25.820312 50.21875 L 25.753906 50.132812 C 25.71875 50.085938 25.640625 50.121094 25.660156 50.179688 L 26.585938 53.472656 L 26.675781 53.792969 L 26.679688 53.804688 C 26.679688 53.816406 26.683594 53.824219 26.6875 53.832031 C 26.6875 53.835938 26.691406 53.835938 26.691406 53.839844 C 26.695312 53.847656 26.695312 53.851562 26.699219 53.859375 C 26.699219 53.859375 26.703125 53.863281 26.703125 53.867188 C 26.707031 53.871094 26.710938 53.875 26.710938 53.882812 C 26.714844 53.882812 26.714844 53.886719 26.71875 53.890625 C 26.722656 53.894531 26.722656 53.898438 26.726562 53.902344 C 26.730469 53.90625 26.730469 53.910156 26.734375 53.914062 C 26.738281 53.917969 26.742188 53.921875 26.746094 53.925781 C 26.746094 53.925781 26.75 53.929688 26.753906 53.933594 C 26.757812 53.9375 26.761719 53.941406 26.765625 53.945312 C 26.765625 53.945312 26.769531 53.949219 26.773438 53.949219 C 26.777344 53.953125 26.78125 53.957031 26.785156 53.960938 C 26.789062 53.964844 26.789062 53.964844 26.792969 53.96875 C 26.800781 53.972656 26.808594 53.976562 26.8125 53.980469 C 26.816406 53.980469 26.820312 53.984375 26.820312 53.984375 C 26.828125 53.988281 26.832031 53.992188 26.835938 53.992188 C 26.839844 53.996094 26.84375 53.996094 26.847656 53.996094 C 26.851562 54 26.855469 54 26.863281 54.003906 C 26.867188 54.003906 26.871094 54.007812 26.875 54.007812 C 26.878906 54.007812 26.882812 54.011719 26.886719 54.011719 C 26.890625 54.011719 26.894531 54.011719 26.898438 54.015625 C 26.902344 54.015625 26.910156 54.015625 26.914062 54.015625 C 26.917969 54.019531 26.921875 54.019531 26.925781 54.019531 C 26.929688 54.019531 26.933594 54.019531 26.9375 54.019531 C 26.945312 54.019531 26.949219 54.019531 26.953125 54.019531 C 26.957031 54.019531 26.960938 54.015625 26.964844 54.015625 C 26.96875 54.015625 26.976562 54.007812 26.980469 54.007812 C 26.984375 54.007812 26.988281 54.015625 26.992188 54.015625 C 26.996094 54.015625 27 54.015625 27.007812 54.015625 C 27.015625 54.015625 27.027344 54.011719 27.035156 54.011719 C 27.570312 53.878906 28.773438 53.605469 29.707031 53.605469 C 30.640625 53.605469 31.84375 53.878906 32.378906 54.011719 C 32.386719 54.015625 32.398438 54.015625 32.40625 54.019531 C 32.410156 54.019531 32.417969 54.015625 32.421875 54.015625 C 32.425781 54.015625 32.429688 54.007812 32.433594 54.007812 C 32.4375 54.007812 32.445312 54.015625 32.449219 54.015625 C 32.453125 54.015625 32.457031 54.019531 32.460938 54.019531 C 32.464844 54.019531 32.46875 54.019531 32.476562 54.019531 C 32.480469 54.019531 32.484375 54.019531 32.488281 54.019531 C 32.492188 54.019531 32.496094 54.015625 32.5 54.015625 C 32.503906 54.015625 32.507812 54.015625 32.515625 54.015625 C 32.519531 54.011719 32.523438 54.011719 32.527344 54.011719 C 32.53125 54.011719 32.535156 54.007812 32.539062 54.007812 C 32.542969 54.007812 32.546875 54.003906 32.550781 54.003906 C 32.554688 54 32.5625 54 32.566406 53.996094 C 32.570312 53.996094 32.574219 53.996094 32.574219 53.992188 C 32.582031 53.992188 32.585938 53.988281 32.59375 53.984375 C 32.59375 53.984375 32.597656 53.980469 32.597656 53.980469 C 32.605469 53.976562 32.613281 53.972656 32.621094 53.96875 C 32.625 53.964844 32.625 53.964844 32.628906 53.960938 C 32.632812 53.957031 32.636719 53.953125 32.640625 53.949219 C 32.644531 53.949219 32.648438 53.945312 32.648438 53.945312 C 32.652344 53.941406 32.65625 53.9375 32.660156 53.933594 C 32.664062 53.929688 32.667969 53.925781 32.667969 53.925781 C 32.671875 53.921875 32.675781 53.917969 32.679688 53.914062 C 32.679688 53.910156 32.683594 53.90625 32.6875 53.902344 C 32.6875 53.898438 32.691406 53.894531 32.695312 53.890625 C 32.699219 53.886719 32.699219 53.882812 32.703125 53.882812 C 32.703125 53.875 32.707031 53.871094 32.710938 53.867188 C 32.710938 53.863281 32.714844 53.859375 32.714844 53.859375 C 32.71875 53.851562 32.71875 53.847656 32.722656 53.839844 C 32.722656 53.835938 32.726562 53.835938 32.726562 53.832031 C 32.730469 53.824219 32.730469 53.816406 32.734375 53.804688 L 32.738281 53.792969 L 32.828125 53.472656 L 33.738281 50.234375 L 33.746094 50.226562 L 33.761719 50.171875 C 33.777344 50.113281 33.699219 50.074219 33.664062 50.125 Z M 33.664062 50.125 " fill-opacity="1" fill-rule="nonzero"/></g><g fill="#242424" fill-opacity="1"><g transform="translate(18.268809, 61.329163)"><g><path d="M 5.421875 0 L 4.125 -1.90625 L 2.734375 0 L -0.03125 0 L 2.734375 -3.640625 L 0.046875 -7.265625 L 2.921875 -7.265625 L 4.203125 -5.421875 L 5.546875 -7.265625 L 8.25 -7.265625 L 5.5625 -3.734375 L 8.34375 0 Z M 5.421875 0 "/></g></g></g><g fill="#242424" fill-opacity="1"><g transform="translate(25.602183, 61.329163)"><g><path d="M 3.921875 -7.390625 C 5.117188 -7.390625 6.035156 -7.113281 6.671875 -6.5625 C 7.304688 -6.007812 7.625 -5.164062 7.625 -4.03125 L 7.625 0 L 5.25 0 L 5.25 -0.9375 C 4.882812 -0.226562 4.171875 0.125 3.109375 0.125 C 2.546875 0.125 2.054688 0.0234375 1.640625 -0.171875 C 1.234375 -0.367188 0.925781 -0.632812 0.71875 -0.96875 C 0.507812 -1.300781 0.40625 -1.6875 0.40625 -2.125 C 0.40625 -2.8125 0.664062 -3.34375 1.1875 -3.71875 C 1.71875 -4.101562 2.535156 -4.296875 3.640625 -4.296875 L 5.078125 -4.296875 C 5.035156 -5.054688 4.523438 -5.4375 3.546875 -5.4375 C 3.191406 -5.4375 2.832031 -5.378906 2.46875 -5.265625 C 2.113281 -5.160156 1.8125 -5.007812 1.5625 -4.8125 L 0.703125 -6.546875 C 1.109375 -6.804688 1.597656 -7.007812 2.171875 -7.15625 C 2.753906 -7.3125 3.335938 -7.390625 3.921875 -7.390625 Z M 3.828125 -1.484375 C 4.117188 -1.484375 4.375 -1.554688 4.59375 -1.703125 C 4.820312 -1.847656 4.984375 -2.054688 5.078125 -2.328125 L 5.078125 -2.96875 L 3.984375 -2.96875 C 3.242188 -2.96875 2.875 -2.71875 2.875 -2.21875 C 2.875 -2 2.957031 -1.820312 3.125 -1.6875 C 3.289062 -1.550781 3.523438 -1.484375 3.828125 -1.484375 Z M 3.828125 -1.484375 "/></g></g></g><g fill="#242424" fill-opacity="1"><g transform="translate(33.056218, 61.329163)"><g><path d="M 8.546875 -9.953125 L 8.546875 0 L 6.109375 0 L 6.109375 -0.71875 C 5.640625 -0.15625 4.929688 0.125 3.984375 0.125 C 3.316406 0.125 2.710938 -0.0234375 2.171875 -0.328125 C 1.628906 -0.640625 1.195312 -1.082031 0.875 -1.65625 C 0.5625 -2.226562 0.40625 -2.890625 0.40625 -3.640625 C 0.40625 -4.390625 0.5625 -5.046875 0.875 -5.609375 C 1.195312 -6.179688 1.628906 -6.617188 2.171875 -6.921875 C 2.710938 -7.234375 3.316406 -7.390625 3.984375 -7.390625 C 4.847656 -7.390625 5.519531 -7.140625 6 -6.640625 L 6 -9.953125 Z M 4.515625 -1.90625 C 4.953125 -1.90625 5.3125 -2.054688 5.59375 -2.359375 C 5.882812 -2.671875 6.03125 -3.097656 6.03125 -3.640625 C 6.03125 -4.179688 5.890625 -4.601562 5.609375 -4.90625 C 5.328125 -5.207031 4.960938 -5.359375 4.515625 -5.359375 C 4.066406 -5.359375 3.695312 -5.207031 3.40625 -4.90625 C 3.125 -4.601562 2.984375 -4.179688 2.984375 -3.640625 C 2.984375 -3.097656 3.125 -2.671875 3.40625 -2.359375 C 3.695312 -2.054688 4.066406 -1.90625 4.515625 -1.90625 Z M 4.515625 -1.90625 "/></g></g></g><g fill="#242424" fill-opacity="1"><g transform="translate(41.448714, 61.329163)"><g><path d="M 3.25 -6.390625 C 3.507812 -6.722656 3.84375 -6.972656 4.25 -7.140625 C 4.664062 -7.304688 5.144531 -7.390625 5.6875 -7.390625 L 5.6875 -5.09375 C 5.445312 -5.125 5.253906 -5.140625 5.109375 -5.140625 C 4.566406 -5.140625 4.140625 -4.988281 3.828125 -4.6875 C 3.515625 -4.394531 3.359375 -3.945312 3.359375 -3.34375 L 3.359375 0 L 0.8125 0 L 0.8125 -7.265625 L 3.25 -7.265625 Z M 3.25 -6.390625 "/></g></g></g><g fill="#242424" fill-opacity="1"><g transform="translate(46.422528, 61.329163)"><g><path d="M 8.25 -3.625 C 8.25 -3.601562 8.234375 -3.390625 8.203125 -2.984375 L 2.921875 -2.984375 C 3.023438 -2.609375 3.234375 -2.320312 3.546875 -2.125 C 3.859375 -1.925781 4.242188 -1.828125 4.703125 -1.828125 C 5.054688 -1.828125 5.359375 -1.875 5.609375 -1.96875 C 5.867188 -2.070312 6.125 -2.234375 6.375 -2.453125 L 7.71875 -1.0625 C 7.007812 -0.269531 5.976562 0.125 4.625 0.125 C 3.78125 0.125 3.035156 -0.0351562 2.390625 -0.359375 C 1.742188 -0.679688 1.242188 -1.128906 0.890625 -1.703125 C 0.535156 -2.273438 0.359375 -2.921875 0.359375 -3.640625 C 0.359375 -4.359375 0.53125 -5 0.875 -5.5625 C 1.21875 -6.132812 1.691406 -6.582031 2.296875 -6.90625 C 2.910156 -7.226562 3.597656 -7.390625 4.359375 -7.390625 C 5.078125 -7.390625 5.734375 -7.238281 6.328125 -6.9375 C 6.921875 -6.632812 7.390625 -6.195312 7.734375 -5.625 C 8.078125 -5.0625 8.25 -4.394531 8.25 -3.625 Z M 4.375 -5.578125 C 3.976562 -5.578125 3.644531 -5.460938 3.375 -5.234375 C 3.113281 -5.015625 2.945312 -4.710938 2.875 -4.328125 L 5.859375 -4.328125 C 5.785156 -4.710938 5.613281 -5.015625 5.34375 -5.234375 C 5.082031 -5.460938 4.757812 -5.578125 4.375 -5.578125 Z M 4.375 -5.578125 "/></g></g></g><g fill="#242424" fill-opacity="1"><g transform="translate(54.064256, 61.329163)"><g><path d="M 7.140625 -1.90625 L 7.140625 0 L 0.4375 0 L 0.4375 -1.5 L 3.8125 -5.375 L 0.53125 -5.375 L 0.53125 -7.265625 L 7.015625 -7.265625 L 7.015625 -5.78125 L 3.640625 -1.90625 Z M 7.140625 -1.90625 "/></g></g></g><g fill="#242424" fill-opacity="1"><g transform="translate(60.553016, 61.329163)"><g><path d="M 8.546875 -9.953125 L 8.546875 0 L 6.109375 0 L 6.109375 -0.71875 C 5.640625 -0.15625 4.929688 0.125 3.984375 0.125 C 3.316406 0.125 2.710938 -0.0234375 2.171875 -0.328125 C 1.628906 -0.640625 1.195312 -1.082031 0.875 -1.65625 C 0.5625 -2.226562 0.40625 -2.890625 0.40625 -3.640625 C 0.40625 -4.390625 0.5625 -5.046875 0.875 -5.609375 C 1.195312 -6.179688 1.628906 -6.617188 2.171875 -6.921875 C 2.710938 -7.234375 3.316406 -7.390625 3.984375 -7.390625 C 4.847656 -7.390625 5.519531 -7.140625 6 -6.640625 L 6 -9.953125 Z M 4.515625 -1.90625 C 4.953125 -1.90625 5.3125 -2.054688 5.59375 -2.359375 C 5.882812 -2.671875 6.03125 -3.097656 6.03125 -3.640625 C 6.03125 -4.179688 5.890625 -4.601562 5.609375 -4.90625 C 5.328125 -5.207031 4.960938 -5.359375 4.515625 -5.359375 C 4.066406 -5.359375 3.695312 -5.207031 3.40625 -4.90625 C 3.125 -4.601562 2.984375 -4.179688 2.984375 -3.640625 C 2.984375 -3.097656 3.125 -2.671875 3.40625 -2.359375 C 3.695312 -2.054688 4.066406 -1.90625 4.515625 -1.90625 Z M 4.515625 -1.90625 "/></g></g></g><g fill="#242424" fill-opacity="1"><g transform="translate(68.945513, 61.329163)"><g><path d="M 0.8125 -7.265625 L 3.359375 -7.265625 L 3.359375 0 L 0.8125 0 Z M 2.09375 -8.078125 C 1.625 -8.078125 1.242188 -8.203125 0.953125 -8.453125 C 0.671875 -8.710938 0.53125 -9.035156 0.53125 -9.421875 C 0.53125 -9.804688 0.671875 -10.128906 0.953125 -10.390625 C 1.242188 -10.648438 1.625 -10.78125 2.09375 -10.78125 C 2.550781 -10.78125 2.921875 -10.65625 3.203125 -10.40625 C 3.492188 -10.164062 3.640625 -9.851562 3.640625 -9.46875 C 3.640625 -9.0625 3.492188 -8.726562 3.203125 -8.46875 C 2.921875 -8.207031 2.550781 -8.078125 2.09375 -8.078125 Z M 2.09375 -8.078125 "/></g></g></g><g fill="#242424" fill-opacity="1"><g transform="translate(72.176467, 61.329163)"><g><path d="M 8.640625 -7.265625 L 8.640625 -1.328125 C 8.640625 0.0234375 8.269531 1.035156 7.53125 1.703125 C 6.800781 2.378906 5.75 2.71875 4.375 2.71875 C 3.65625 2.71875 2.984375 2.632812 2.359375 2.46875 C 1.734375 2.3125 1.203125 2.078125 0.765625 1.765625 L 1.6875 -0.015625 C 1.976562 0.222656 2.347656 0.410156 2.796875 0.546875 C 3.253906 0.691406 3.703125 0.765625 4.140625 0.765625 C 4.804688 0.765625 5.296875 0.613281 5.609375 0.3125 C 5.929688 0.0195312 6.09375 -0.410156 6.09375 -0.984375 L 6.09375 -1.234375 C 5.59375 -0.660156 4.867188 -0.375 3.921875 -0.375 C 3.285156 -0.375 2.691406 -0.519531 2.140625 -0.8125 C 1.597656 -1.101562 1.164062 -1.515625 0.84375 -2.046875 C 0.519531 -2.578125 0.359375 -3.191406 0.359375 -3.890625 C 0.359375 -4.578125 0.519531 -5.1875 0.84375 -5.71875 C 1.164062 -6.25 1.597656 -6.660156 2.140625 -6.953125 C 2.691406 -7.242188 3.285156 -7.390625 3.921875 -7.390625 C 4.960938 -7.390625 5.722656 -7.050781 6.203125 -6.375 L 6.203125 -7.265625 Z M 4.53125 -2.40625 C 4.988281 -2.40625 5.363281 -2.539062 5.65625 -2.8125 C 5.957031 -3.09375 6.109375 -3.453125 6.109375 -3.890625 C 6.109375 -4.328125 5.960938 -4.679688 5.671875 -4.953125 C 5.378906 -5.222656 5 -5.359375 4.53125 -5.359375 C 4.0625 -5.359375 3.675781 -5.222656 3.375 -4.953125 C 3.082031 -4.679688 2.9375 -4.328125 2.9375 -3.890625 C 2.9375 -3.453125 3.085938 -3.09375 3.390625 -2.8125 C 3.691406 -2.539062 4.070312 -2.40625 4.53125 -2.40625 Z M 4.53125 -2.40625 "/></g></g></g><g fill="#242424" fill-opacity="1"><g transform="translate(80.662809, 61.329163)"><g><path d="M 0.8125 -7.265625 L 3.359375 -7.265625 L 3.359375 0 L 0.8125 0 Z M 2.09375 -8.078125 C 1.625 -8.078125 1.242188 -8.203125 0.953125 -8.453125 C 0.671875 -8.710938 0.53125 -9.035156 0.53125 -9.421875 C 0.53125 -9.804688 0.671875 -10.128906 0.953125 -10.390625 C 1.242188 -10.648438 1.625 -10.78125 2.09375 -10.78125 C 2.550781 -10.78125 2.921875 -10.65625 3.203125 -10.40625 C 3.492188 -10.164062 3.640625 -9.851562 3.640625 -9.46875 C 3.640625 -9.0625 3.492188 -8.726562 3.203125 -8.46875 C 2.921875 -8.207031 2.550781 -8.078125 2.09375 -8.078125 Z M 2.09375 -8.078125 "/></g></g></g><g fill="#242424" fill-opacity="1"><g transform="translate(83.893762, 61.329163)"><g><path d="M 5.828125 -0.296875 C 5.617188 -0.160156 5.359375 -0.0546875 5.046875 0.015625 C 4.734375 0.0859375 4.40625 0.125 4.0625 0.125 C 3.113281 0.125 2.382812 -0.109375 1.875 -0.578125 C 1.363281 -1.046875 1.109375 -1.738281 1.109375 -2.65625 L 1.109375 -5.09375 L 0.046875 -5.09375 L 0.046875 -7 L 1.109375 -7 L 1.109375 -8.890625 L 3.65625 -8.890625 L 3.65625 -7 L 5.328125 -7 L 5.328125 -5.09375 L 3.65625 -5.09375 L 3.65625 -2.6875 C 3.65625 -2.425781 3.722656 -2.21875 3.859375 -2.0625 C 4.003906 -1.914062 4.191406 -1.84375 4.421875 -1.84375 C 4.710938 -1.84375 4.972656 -1.921875 5.203125 -2.078125 Z M 5.828125 -0.296875 "/></g></g></g><g fill="#242424" fill-opacity="1"><g transform="translate(88.921204, 61.329163)"><g><path d="M 3.921875 -7.390625 C 5.117188 -7.390625 6.035156 -7.113281 6.671875 -6.5625 C 7.304688 -6.007812 7.625 -5.164062 7.625 -4.03125 L 7.625 0 L 5.25 0 L 5.25 -0.9375 C 4.882812 -0.226562 4.171875 0.125 3.109375 0.125 C 2.546875 0.125 2.054688 0.0234375 1.640625 -0.171875 C 1.234375 -0.367188 0.925781 -0.632812 0.71875 -0.96875 C 0.507812 -1.300781 0.40625 -1.6875 0.40625 -2.125 C 0.40625 -2.8125 0.664062 -3.34375 1.1875 -3.71875 C 1.71875 -4.101562 2.535156 -4.296875 3.640625 -4.296875 L 5.078125 -4.296875 C 5.035156 -5.054688 4.523438 -5.4375 3.546875 -5.4375 C 3.191406 -5.4375 2.832031 -5.378906 2.46875 -5.265625 C 2.113281 -5.160156 1.8125 -5.007812 1.5625 -4.8125 L 0.703125 -6.546875 C 1.109375 -6.804688 1.597656 -7.007812 2.171875 -7.15625 C 2.753906 -7.3125 3.335938 -7.390625 3.921875 -7.390625 Z M 3.828125 -1.484375 C 4.117188 -1.484375 4.375 -1.554688 4.59375 -1.703125 C 4.820312 -1.847656 4.984375 -2.054688 5.078125 -2.328125 L 5.078125 -2.96875 L 3.984375 -2.96875 C 3.242188 -2.96875 2.875 -2.71875 2.875 -2.21875 C 2.875 -2 2.957031 -1.820312 3.125 -1.6875 C 3.289062 -1.550781 3.523438 -1.484375 3.828125 -1.484375 Z M 3.828125 -1.484375 "/></g></g></g><g fill="#242424" fill-opacity="1"><g transform="translate(96.375237, 61.329163)"><g><path d="M 0.8125 -9.953125 L 3.359375 -9.953125 L 3.359375 0 L 0.8125 0 Z M 0.8125 -9.953125 "/></g></g></g><g fill="#242424" fill-opacity="1"><g transform="translate(100.224838, 61.22177)"><g><path d="M 0.59375 0.03125 C 0.457031 0.03125 0.34375 -0.0078125 0.25 -0.09375 C 0.15625 -0.1875 0.109375 -0.300781 0.109375 -0.4375 C 0.109375 -0.570312 0.148438 -0.679688 0.234375 -0.765625 C 0.328125 -0.847656 0.445312 -0.890625 0.59375 -0.890625 C 0.726562 -0.890625 0.835938 -0.847656 0.921875 -0.765625 C 1.015625 -0.679688 1.0625 -0.570312 1.0625 -0.4375 C 1.0625 -0.300781 1.015625 -0.1875 0.921875 -0.09375 C 0.835938 -0.0078125 0.726562 0.03125 0.59375 0.03125 Z M 0.59375 0.03125 "/></g></g></g><g fill="#242424" fill-opacity="1"><g transform="translate(101.400428, 61.22177)"><g><path d="M 1.734375 0.0625 C 1.429688 0.0625 1.160156 0 0.921875 -0.125 C 0.679688 -0.257812 0.488281 -0.441406 0.34375 -0.671875 C 0.207031 -0.898438 0.140625 -1.160156 0.140625 -1.453125 C 0.140625 -1.742188 0.207031 -2.003906 0.34375 -2.234375 C 0.488281 -2.460938 0.679688 -2.640625 0.921875 -2.765625 C 1.160156 -2.898438 1.429688 -2.96875 1.734375 -2.96875 C 2.003906 -2.96875 2.242188 -2.921875 2.453125 -2.828125 C 2.671875 -2.734375 2.851562 -2.597656 3 -2.421875 L 2.46875 -1.9375 C 2.28125 -2.164062 2.050781 -2.28125 1.78125 -2.28125 C 1.625 -2.28125 1.484375 -2.242188 1.359375 -2.171875 C 1.234375 -2.109375 1.132812 -2.015625 1.0625 -1.890625 C 1 -1.765625 0.96875 -1.617188 0.96875 -1.453125 C 0.96875 -1.285156 1 -1.140625 1.0625 -1.015625 C 1.132812 -0.890625 1.234375 -0.789062 1.359375 -0.71875 C 1.484375 -0.65625 1.625 -0.625 1.78125 -0.625 C 2.050781 -0.625 2.28125 -0.738281 2.46875 -0.96875 L 3 -0.484375 C 2.851562 -0.304688 2.671875 -0.171875 2.453125 -0.078125 C 2.242188 0.015625 2.003906 0.0625 1.734375 0.0625 Z M 1.734375 0.0625 "/></g></g></g><g fill="#242424" fill-opacity="1"><g transform="translate(104.466099, 61.22177)"><g><path d="M 1.765625 0.0625 C 1.453125 0.0625 1.171875 0 0.921875 -0.125 C 0.679688 -0.257812 0.488281 -0.441406 0.34375 -0.671875 C 0.207031 -0.898438 0.140625 -1.160156 0.140625 -1.453125 C 0.140625 -1.742188 0.207031 -2.003906 0.34375 -2.234375 C 0.488281 -2.460938 0.679688 -2.640625 0.921875 -2.765625 C 1.171875 -2.898438 1.453125 -2.96875 1.765625 -2.96875 C 2.066406 -2.96875 2.335938 -2.898438 2.578125 -2.765625 C 2.828125 -2.640625 3.019531 -2.460938 3.15625 -2.234375 C 3.300781 -2.003906 3.375 -1.742188 3.375 -1.453125 C 3.375 -1.160156 3.300781 -0.898438 3.15625 -0.671875 C 3.019531 -0.441406 2.828125 -0.257812 2.578125 -0.125 C 2.335938 0 2.066406 0.0625 1.765625 0.0625 Z M 1.765625 -0.625 C 1.910156 -0.625 2.039062 -0.65625 2.15625 -0.71875 C 2.269531 -0.789062 2.363281 -0.890625 2.4375 -1.015625 C 2.507812 -1.140625 2.546875 -1.285156 2.546875 -1.453125 C 2.546875 -1.617188 2.507812 -1.765625 2.4375 -1.890625 C 2.363281 -2.015625 2.269531 -2.109375 2.15625 -2.171875 C 2.039062 -2.242188 1.910156 -2.28125 1.765625 -2.28125 C 1.609375 -2.28125 1.472656 -2.242188 1.359375 -2.171875 C 1.242188 -2.109375 1.148438 -2.015625 1.078125 -1.890625 C 1.003906 -1.765625 0.96875 -1.617188 0.96875 -1.453125 C 0.96875 -1.285156 1.003906 -1.140625 1.078125 -1.015625 C 1.148438 -0.890625 1.242188 -0.789062 1.359375 -0.71875 C 1.472656 -0.65625 1.609375 -0.625 1.765625 -0.625 Z M 1.765625 -0.625 "/></g></g></g><g fill="#242424" fill-opacity="1"><g transform="translate(107.980405, 61.22177)"><g><path d="M 2.921875 0 L 2.90625 -1.546875 L 2.15625 -0.28125 L 1.796875 -0.28125 L 1.046875 -1.5 L 1.046875 0 L 0.296875 0 L 0.296875 -2.90625 L 0.96875 -2.90625 L 1.984375 -1.234375 L 2.984375 -2.90625 L 3.671875 -2.90625 L 3.671875 0 Z M 2.921875 0 "/></g></g></g><g fill="#242424" fill-opacity="1"><g transform="translate(0.0000015, 72.996355)"><g><path d="M 4.15625 -3.953125 L 4.15625 0 L 3.734375 0 L 3.734375 -3.265625 L 2.28125 -1.234375 L 0.9375 -3.25 L 0.9375 0 L 0.5 0 L 0.5 -3.953125 L 0.96875 -3.953125 L 2.3125 -1.90625 L 3.6875 -3.953125 Z M 4.15625 -3.953125 "/></g></g></g><g fill="#242424" fill-opacity="1"><g transform="translate(4.656846, 72.996355)"><g><path d="M 1.625 -3.015625 C 2.070312 -3.015625 2.398438 -2.867188 2.609375 -2.578125 C 2.828125 -2.285156 2.929688 -1.894531 2.921875 -1.40625 L 0.765625 -1.40625 C 0.765625 -1.050781 0.847656 -0.773438 1.015625 -0.578125 C 1.179688 -0.390625 1.414062 -0.296875 1.71875 -0.296875 C 2.113281 -0.296875 2.453125 -0.382812 2.734375 -0.5625 L 2.734375 -0.125 C 2.441406 0.0195312 2.097656 0.09375 1.703125 0.09375 C 1.265625 0.09375 0.925781 -0.0390625 0.6875 -0.3125 C 0.445312 -0.582031 0.328125 -0.972656 0.328125 -1.484375 C 0.328125 -1.984375 0.441406 -2.363281 0.671875 -2.625 C 0.898438 -2.882812 1.21875 -3.015625 1.625 -3.015625 Z M 1.625 -2.625 C 1.363281 -2.625 1.164062 -2.5625 1.03125 -2.4375 C 0.894531 -2.320312 0.8125 -2.109375 0.78125 -1.796875 L 2.46875 -1.796875 C 2.445312 -2.078125 2.367188 -2.285156 2.234375 -2.421875 C 2.097656 -2.554688 1.894531 -2.625 1.625 -2.625 Z M 1.625 -2.625 "/></g></g></g><g fill="#242424" fill-opacity="1"><g transform="translate(7.901807, 72.996355)"><g><path d="M 0.46875 0 L 0.46875 -4.09375 L 0.90625 -4.09375 L 0.90625 0 Z M 0.46875 0 "/></g></g></g><g fill="#242424" fill-opacity="1"><g transform="translate(9.278102, 72.996355)"><g><path d="M 1.796875 -3.015625 C 2.171875 -3.015625 2.453125 -2.910156 2.640625 -2.703125 C 2.835938 -2.492188 2.9375 -2.175781 2.9375 -1.75 L 2.9375 0 L 2.515625 0 L 2.515625 -1.75 C 2.515625 -2.03125 2.445312 -2.242188 2.3125 -2.390625 C 2.1875 -2.546875 2 -2.625 1.75 -2.625 C 1.476562 -2.625 1.195312 -2.546875 0.90625 -2.390625 L 0.90625 0 L 0.46875 0 L 0.46875 -4.28125 L 0.90625 -4.28125 L 0.90625 -2.765625 C 1.050781 -2.847656 1.203125 -2.910156 1.359375 -2.953125 C 1.515625 -2.992188 1.660156 -3.015625 1.796875 -3.015625 Z M 1.796875 -3.015625 "/></g></g></g><g fill="#242424" fill-opacity="1"><g transform="translate(12.689172, 72.996355)"><g><path d="M 1.6875 0.09375 C 1.238281 0.09375 0.898438 -0.0390625 0.671875 -0.3125 C 0.441406 -0.582031 0.328125 -0.96875 0.328125 -1.46875 C 0.328125 -1.976562 0.441406 -2.363281 0.671875 -2.625 C 0.898438 -2.882812 1.238281 -3.015625 1.6875 -3.015625 C 2.144531 -3.015625 2.484375 -2.875 2.703125 -2.59375 C 2.929688 -2.320312 3.046875 -1.945312 3.046875 -1.46875 C 3.046875 -0.976562 2.925781 -0.59375 2.6875 -0.3125 C 2.457031 -0.0390625 2.125 0.09375 1.6875 0.09375 Z M 1.6875 -0.296875 C 2.3125 -0.296875 2.625 -0.6875 2.625 -1.46875 C 2.625 -1.84375 2.550781 -2.128906 2.40625 -2.328125 C 2.257812 -2.523438 2.019531 -2.625 1.6875 -2.625 C 1.0625 -2.625 0.75 -2.238281 0.75 -1.46875 C 0.75 -0.6875 1.0625 -0.296875 1.6875 -0.296875 Z M 1.6875 -0.296875 "/></g></g></g><g fill="#242424" fill-opacity="1"><g transform="translate(16.064646, 72.996355)"><g><path d="M 0.46875 -2.71875 C 0.625 -2.789062 0.820312 -2.859375 1.0625 -2.921875 C 1.3125 -2.984375 1.570312 -3.015625 1.84375 -3.015625 C 1.882812 -3.015625 1.945312 -3.003906 2.03125 -2.984375 L 2.03125 -2.59375 C 1.9375 -2.613281 1.84375 -2.625 1.75 -2.625 C 1.613281 -2.625 1.488281 -2.613281 1.375 -2.59375 C 1.269531 -2.582031 1.113281 -2.554688 0.90625 -2.515625 L 0.90625 0 L 0.46875 0 Z M 0.46875 -2.71875 "/></g></g></g><g fill="#242424" fill-opacity="1"><g transform="translate(18.30112, 72.996355)"><g><path d="M 1.625 -3.015625 C 2.070312 -3.015625 2.398438 -2.867188 2.609375 -2.578125 C 2.828125 -2.285156 2.929688 -1.894531 2.921875 -1.40625 L 0.765625 -1.40625 C 0.765625 -1.050781 0.847656 -0.773438 1.015625 -0.578125 C 1.179688 -0.390625 1.414062 -0.296875 1.71875 -0.296875 C 2.113281 -0.296875 2.453125 -0.382812 2.734375 -0.5625 L 2.734375 -0.125 C 2.441406 0.0195312 2.097656 0.09375 1.703125 0.09375 C 1.265625 0.09375 0.925781 -0.0390625 0.6875 -0.3125 C 0.445312 -0.582031 0.328125 -0.972656 0.328125 -1.484375 C 0.328125 -1.984375 0.441406 -2.363281 0.671875 -2.625 C 0.898438 -2.882812 1.21875 -3.015625 1.625 -3.015625 Z M 1.625 -2.625 C 1.363281 -2.625 1.164062 -2.5625 1.03125 -2.4375 C 0.894531 -2.320312 0.8125 -2.109375 0.78125 -1.796875 L 2.46875 -1.796875 C 2.445312 -2.078125 2.367188 -2.285156 2.234375 -2.421875 C 2.097656 -2.554688 1.894531 -2.625 1.625 -2.625 Z M 1.625 -2.625 "/></g></g></g><g fill="#242424" fill-opacity="1"><g transform="translate(21.54608, 72.996355)"><g><path d="M 1.3125 0.09375 C 1.113281 0.09375 0.941406 0.0703125 0.796875 0.03125 C 0.648438 -0.0078125 0.492188 -0.0703125 0.328125 -0.15625 L 0.328125 -0.609375 C 0.523438 -0.492188 0.6875 -0.410156 0.8125 -0.359375 C 0.945312 -0.316406 1.101562 -0.296875 1.28125 -0.296875 C 1.476562 -0.296875 1.640625 -0.335938 1.765625 -0.421875 C 1.890625 -0.515625 1.953125 -0.628906 1.953125 -0.765625 C 1.953125 -0.890625 1.914062 -0.984375 1.84375 -1.046875 C 1.769531 -1.109375 1.648438 -1.171875 1.484375 -1.234375 L 1.328125 -1.296875 C 1.097656 -1.359375 0.921875 -1.414062 0.796875 -1.46875 C 0.679688 -1.519531 0.578125 -1.597656 0.484375 -1.703125 C 0.390625 -1.816406 0.34375 -1.972656 0.34375 -2.171875 C 0.34375 -2.359375 0.390625 -2.515625 0.484375 -2.640625 C 0.585938 -2.765625 0.71875 -2.859375 0.875 -2.921875 C 1.03125 -2.984375 1.195312 -3.015625 1.375 -3.015625 C 1.53125 -3.015625 1.660156 -2.992188 1.765625 -2.953125 C 1.878906 -2.921875 2.03125 -2.863281 2.21875 -2.78125 L 2.21875 -2.359375 C 2.019531 -2.453125 1.867188 -2.519531 1.765625 -2.5625 C 1.660156 -2.601562 1.535156 -2.625 1.390625 -2.625 C 1.222656 -2.625 1.078125 -2.585938 0.953125 -2.515625 C 0.828125 -2.453125 0.765625 -2.359375 0.765625 -2.234375 C 0.765625 -2.128906 0.796875 -2.039062 0.859375 -1.96875 C 0.921875 -1.90625 1 -1.851562 1.09375 -1.8125 C 1.1875 -1.78125 1.3125 -1.742188 1.46875 -1.703125 C 1.664062 -1.640625 1.820312 -1.582031 1.9375 -1.53125 C 2.050781 -1.476562 2.148438 -1.394531 2.234375 -1.28125 C 2.328125 -1.164062 2.375 -1.015625 2.375 -0.828125 C 2.375 -0.617188 2.320312 -0.445312 2.21875 -0.3125 C 2.125 -0.175781 1.992188 -0.0703125 1.828125 0 C 1.660156 0.0625 1.488281 0.09375 1.3125 0.09375 Z M 1.3125 0.09375 "/></g></g></g><g fill="#242424" fill-opacity="1"><g transform="translate(24.251208, 72.996355)"><g/></g></g><g fill="#242424" fill-opacity="1"><g transform="translate(25.971574, 72.996355)"><g><path d="M 1.625 0.0625 C 1.351562 0.0625 1.132812 0.0351562 0.96875 -0.015625 C 0.8125 -0.0664062 0.617188 -0.15625 0.390625 -0.28125 L 0.390625 -0.75 C 0.523438 -0.625 0.703125 -0.519531 0.921875 -0.4375 C 1.140625 -0.363281 1.378906 -0.328125 1.640625 -0.328125 C 1.929688 -0.328125 2.144531 -0.390625 2.28125 -0.515625 C 2.425781 -0.640625 2.5 -0.804688 2.5 -1.015625 C 2.5 -1.171875 2.457031 -1.296875 2.375 -1.390625 C 2.289062 -1.492188 2.191406 -1.570312 2.078125 -1.625 C 1.960938 -1.6875 1.789062 -1.765625 1.5625 -1.859375 C 1.320312 -1.941406 1.128906 -2.019531 0.984375 -2.09375 C 0.835938 -2.164062 0.710938 -2.273438 0.609375 -2.421875 C 0.503906 -2.566406 0.453125 -2.757812 0.453125 -3 C 0.453125 -3.164062 0.492188 -3.328125 0.578125 -3.484375 C 0.660156 -3.640625 0.789062 -3.765625 0.96875 -3.859375 C 1.144531 -3.960938 1.378906 -4.015625 1.671875 -4.015625 C 1.878906 -4.015625 2.046875 -3.992188 2.171875 -3.953125 C 2.304688 -3.921875 2.484375 -3.847656 2.703125 -3.734375 L 2.703125 -3.296875 C 2.679688 -3.316406 2.609375 -3.359375 2.484375 -3.421875 C 2.359375 -3.492188 2.234375 -3.546875 2.109375 -3.578125 C 1.984375 -3.609375 1.84375 -3.625 1.6875 -3.625 C 1.414062 -3.625 1.210938 -3.566406 1.078125 -3.453125 C 0.953125 -3.347656 0.890625 -3.207031 0.890625 -3.03125 C 0.890625 -2.875 0.921875 -2.75 0.984375 -2.65625 C 1.054688 -2.5625 1.148438 -2.484375 1.265625 -2.421875 C 1.390625 -2.367188 1.554688 -2.304688 1.765625 -2.234375 C 2.015625 -2.148438 2.21875 -2.066406 2.375 -1.984375 C 2.53125 -1.898438 2.660156 -1.78125 2.765625 -1.625 C 2.878906 -1.476562 2.9375 -1.289062 2.9375 -1.0625 C 2.9375 -0.75 2.832031 -0.484375 2.625 -0.265625 C 2.414062 -0.046875 2.082031 0.0625 1.625 0.0625 Z M 1.625 0.0625 "/></g></g></g><g fill="#242424" fill-opacity="1"><g transform="translate(29.263996, 72.996355)"><g><path d="M 1.6875 0.09375 C 1.238281 0.09375 0.898438 -0.0390625 0.671875 -0.3125 C 0.441406 -0.582031 0.328125 -0.96875 0.328125 -1.46875 C 0.328125 -1.976562 0.441406 -2.363281 0.671875 -2.625 C 0.898438 -2.882812 1.238281 -3.015625 1.6875 -3.015625 C 2.144531 -3.015625 2.484375 -2.875 2.703125 -2.59375 C 2.929688 -2.320312 3.046875 -1.945312 3.046875 -1.46875 C 3.046875 -0.976562 2.925781 -0.59375 2.6875 -0.3125 C 2.457031 -0.0390625 2.125 0.09375 1.6875 0.09375 Z M 1.6875 -0.296875 C 2.3125 -0.296875 2.625 -0.6875 2.625 -1.46875 C 2.625 -1.84375 2.550781 -2.128906 2.40625 -2.328125 C 2.257812 -2.523438 2.019531 -2.625 1.6875 -2.625 C 1.0625 -2.625 0.75 -2.238281 0.75 -1.46875 C 0.75 -0.6875 1.0625 -0.296875 1.6875 -0.296875 Z M 1.6875 -0.296875 "/></g></g></g><g fill="#242424" fill-opacity="1"><g transform="translate(32.63947, 72.996355)"><g><path d="M 0.75 -2.578125 L 0.234375 -2.578125 L 0.234375 -2.96875 L 0.75 -2.96875 L 0.75 -3.125 C 0.75 -3.445312 0.804688 -3.6875 0.921875 -3.84375 C 1.035156 -4.007812 1.15625 -4.109375 1.28125 -4.140625 C 1.414062 -4.179688 1.554688 -4.203125 1.703125 -4.203125 C 1.804688 -4.203125 1.898438 -4.191406 1.984375 -4.171875 L 1.984375 -3.796875 C 1.910156 -3.804688 1.84375 -3.8125 1.78125 -3.8125 C 1.644531 -3.8125 1.535156 -3.800781 1.453125 -3.78125 C 1.378906 -3.757812 1.3125 -3.695312 1.25 -3.59375 C 1.195312 -3.5 1.171875 -3.34375 1.171875 -3.125 L 1.171875 -2.96875 L 1.984375 -2.96875 L 1.984375 -2.578125 L 1.171875 -2.578125 L 1.171875 0 L 0.75 0 Z M 0.75 -2.578125 "/></g></g></g><g fill="#242424" fill-opacity="1"><g transform="translate(34.864078, 72.996355)"><g><path d="M 1.40625 0.046875 C 1.1875 0.046875 1.007812 -0.015625 0.875 -0.140625 C 0.738281 -0.273438 0.671875 -0.46875 0.671875 -0.71875 L 0.671875 -2.578125 L 0.15625 -2.578125 L 0.15625 -2.96875 L 0.671875 -2.96875 L 0.671875 -3.796875 L 1.09375 -3.796875 L 1.09375 -2.96875 L 1.859375 -2.96875 L 1.859375 -2.578125 L 1.09375 -2.578125 L 1.09375 -0.859375 C 1.09375 -0.679688 1.117188 -0.550781 1.171875 -0.46875 C 1.234375 -0.394531 1.335938 -0.359375 1.484375 -0.359375 C 1.628906 -0.359375 1.753906 -0.378906 1.859375 -0.421875 L 1.859375 -0.03125 C 1.804688 -0.0078125 1.734375 0.00390625 1.640625 0.015625 C 1.554688 0.0351562 1.476562 0.046875 1.40625 0.046875 Z M 1.40625 0.046875 "/></g></g></g><g fill="#242424" fill-opacity="1"><g transform="translate(37.017501, 72.996355)"><g><path d="M 4.515625 -2.96875 L 3.53125 0 L 3.09375 0 L 2.359375 -2.453125 L 1.625 0 L 1.1875 0 L 0.203125 -2.96875 L 0.65625 -2.96875 L 1.4375 -0.484375 L 2.15625 -2.96875 L 2.5625 -2.96875 L 3.3125 -0.484375 L 4.09375 -2.96875 Z M 4.515625 -2.96875 "/></g></g></g><g fill="#242424" fill-opacity="1"><g transform="translate(41.739602, 72.996355)"><g><path d="M 1.734375 -3.015625 C 2.066406 -3.015625 2.328125 -2.929688 2.515625 -2.765625 C 2.710938 -2.609375 2.8125 -2.375 2.8125 -2.0625 L 2.8125 -0.625 C 2.8125 -0.34375 2.691406 -0.148438 2.453125 -0.046875 C 2.222656 0.046875 1.90625 0.09375 1.5 0.09375 C 1.1875 0.09375 0.914062 0.0234375 0.6875 -0.109375 C 0.46875 -0.253906 0.359375 -0.488281 0.359375 -0.8125 C 0.359375 -1.164062 0.453125 -1.421875 0.640625 -1.578125 C 0.835938 -1.742188 1.109375 -1.828125 1.453125 -1.828125 C 1.835938 -1.828125 2.144531 -1.753906 2.375 -1.609375 L 2.375 -1.96875 C 2.375 -2.40625 2.117188 -2.625 1.609375 -2.625 C 1.429688 -2.625 1.253906 -2.597656 1.078125 -2.546875 C 0.910156 -2.503906 0.765625 -2.4375 0.640625 -2.34375 L 0.640625 -2.765625 C 0.765625 -2.847656 0.925781 -2.910156 1.125 -2.953125 C 1.332031 -2.992188 1.535156 -3.015625 1.734375 -3.015625 Z M 1.59375 -0.296875 C 1.875 -0.296875 2.070312 -0.316406 2.1875 -0.359375 C 2.3125 -0.398438 2.375 -0.484375 2.375 -0.609375 L 2.375 -1.265625 C 2.269531 -1.316406 2.144531 -1.359375 2 -1.390625 C 1.863281 -1.421875 1.71875 -1.4375 1.5625 -1.4375 C 1.3125 -1.4375 1.117188 -1.390625 0.984375 -1.296875 C 0.847656 -1.203125 0.78125 -1.0625 0.78125 -0.875 C 0.78125 -0.664062 0.859375 -0.515625 1.015625 -0.421875 C 1.179688 -0.335938 1.375 -0.296875 1.59375 -0.296875 Z M 1.59375 -0.296875 "/></g></g></g><g fill="#242424" fill-opacity="1"><g transform="translate(45.026088, 72.996355)"><g><path d="M 0.46875 -2.71875 C 0.625 -2.789062 0.820312 -2.859375 1.0625 -2.921875 C 1.3125 -2.984375 1.570312 -3.015625 1.84375 -3.015625 C 1.882812 -3.015625 1.945312 -3.003906 2.03125 -2.984375 L 2.03125 -2.59375 C 1.9375 -2.613281 1.84375 -2.625 1.75 -2.625 C 1.613281 -2.625 1.488281 -2.613281 1.375 -2.59375 C 1.269531 -2.582031 1.113281 -2.554688 0.90625 -2.515625 L 0.90625 0 L 0.46875 0 Z M 0.46875 -2.71875 "/></g></g></g><g fill="#242424" fill-opacity="1"><g transform="translate(47.262562, 72.996355)"><g><path d="M 1.625 -3.015625 C 2.070312 -3.015625 2.398438 -2.867188 2.609375 -2.578125 C 2.828125 -2.285156 2.929688 -1.894531 2.921875 -1.40625 L 0.765625 -1.40625 C 0.765625 -1.050781 0.847656 -0.773438 1.015625 -0.578125 C 1.179688 -0.390625 1.414062 -0.296875 1.71875 -0.296875 C 2.113281 -0.296875 2.453125 -0.382812 2.734375 -0.5625 L 2.734375 -0.125 C 2.441406 0.0195312 2.097656 0.09375 1.703125 0.09375 C 1.265625 0.09375 0.925781 -0.0390625 0.6875 -0.3125 C 0.445312 -0.582031 0.328125 -0.972656 0.328125 -1.484375 C 0.328125 -1.984375 0.441406 -2.363281 0.671875 -2.625 C 0.898438 -2.882812 1.21875 -3.015625 1.625 -3.015625 Z M 1.625 -2.625 C 1.363281 -2.625 1.164062 -2.5625 1.03125 -2.4375 C 0.894531 -2.320312 0.8125 -2.109375 0.78125 -1.796875 L 2.46875 -1.796875 C 2.445312 -2.078125 2.367188 -2.285156 2.234375 -2.421875 C 2.097656 -2.554688 1.894531 -2.625 1.625 -2.625 Z M 1.625 -2.625 "/></g></g></g><g fill="#242424" fill-opacity="1"><g transform="translate(50.507523, 72.996355)"><g><path d="M 1.3125 0.09375 C 1.113281 0.09375 0.941406 0.0703125 0.796875 0.03125 C 0.648438 -0.0078125 0.492188 -0.0703125 0.328125 -0.15625 L 0.328125 -0.609375 C 0.523438 -0.492188 0.6875 -0.410156 0.8125 -0.359375 C 0.945312 -0.316406 1.101562 -0.296875 1.28125 -0.296875 C 1.476562 -0.296875 1.640625 -0.335938 1.765625 -0.421875 C 1.890625 -0.515625 1.953125 -0.628906 1.953125 -0.765625 C 1.953125 -0.890625 1.914062 -0.984375 1.84375 -1.046875 C 1.769531 -1.109375 1.648438 -1.171875 1.484375 -1.234375 L 1.328125 -1.296875 C 1.097656 -1.359375 0.921875 -1.414062 0.796875 -1.46875 C 0.679688 -1.519531 0.578125 -1.597656 0.484375 -1.703125 C 0.390625 -1.816406 0.34375 -1.972656 0.34375 -2.171875 C 0.34375 -2.359375 0.390625 -2.515625 0.484375 -2.640625 C 0.585938 -2.765625 0.71875 -2.859375 0.875 -2.921875 C 1.03125 -2.984375 1.195312 -3.015625 1.375 -3.015625 C 1.53125 -3.015625 1.660156 -2.992188 1.765625 -2.953125 C 1.878906 -2.921875 2.03125 -2.863281 2.21875 -2.78125 L 2.21875 -2.359375 C 2.019531 -2.453125 1.867188 -2.519531 1.765625 -2.5625 C 1.660156 -2.601562 1.535156 -2.625 1.390625 -2.625 C 1.222656 -2.625 1.078125 -2.585938 0.953125 -2.515625 C 0.828125 -2.453125 0.765625 -2.359375 0.765625 -2.234375 C 0.765625 -2.128906 0.796875 -2.039062 0.859375 -1.96875 C 0.921875 -1.90625 1 -1.851562 1.09375 -1.8125 C 1.1875 -1.78125 1.3125 -1.742188 1.46875 -1.703125 C 1.664062 -1.640625 1.820312 -1.582031 1.9375 -1.53125 C 2.050781 -1.476562 2.148438 -1.394531 2.234375 -1.28125 C 2.328125 -1.164062 2.375 -1.015625 2.375 -0.828125 C 2.375 -0.617188 2.320312 -0.445312 2.21875 -0.3125 C 2.125 -0.175781 1.992188 -0.0703125 1.828125 0 C 1.660156 0.0625 1.488281 0.09375 1.3125 0.09375 Z M 1.3125 0.09375 "/></g></g></g><g fill="#242424" fill-opacity="1"><g transform="translate(53.212651, 72.996355)"><g/></g></g><g fill="#242424" fill-opacity="1"><g transform="translate(54.933016, 72.996355)"><g><path d="M 1.625 -3.015625 C 2.070312 -3.015625 2.398438 -2.867188 2.609375 -2.578125 C 2.828125 -2.285156 2.929688 -1.894531 2.921875 -1.40625 L 0.765625 -1.40625 C 0.765625 -1.050781 0.847656 -0.773438 1.015625 -0.578125 C 1.179688 -0.390625 1.414062 -0.296875 1.71875 -0.296875 C 2.113281 -0.296875 2.453125 -0.382812 2.734375 -0.5625 L 2.734375 -0.125 C 2.441406 0.0195312 2.097656 0.09375 1.703125 0.09375 C 1.265625 0.09375 0.925781 -0.0390625 0.6875 -0.3125 C 0.445312 -0.582031 0.328125 -0.972656 0.328125 -1.484375 C 0.328125 -1.984375 0.441406 -2.363281 0.671875 -2.625 C 0.898438 -2.882812 1.21875 -3.015625 1.625 -3.015625 Z M 1.625 -2.625 C 1.363281 -2.625 1.164062 -2.5625 1.03125 -2.4375 C 0.894531 -2.320312 0.8125 -2.109375 0.78125 -1.796875 L 2.46875 -1.796875 C 2.445312 -2.078125 2.367188 -2.285156 2.234375 -2.421875 C 2.097656 -2.554688 1.894531 -2.625 1.625 -2.625 Z M 1.625 -2.625 "/></g></g></g><g fill="#242424" fill-opacity="1"><g transform="translate(58.177977, 72.996355)"><g/></g></g><g fill="#242424" fill-opacity="1"><g transform="translate(59.898342, 72.996355)"><g><path d="M 2.15625 0.046875 C 1.550781 0.046875 1.09375 -0.117188 0.78125 -0.453125 C 0.476562 -0.796875 0.328125 -1.304688 0.328125 -1.984375 C 0.328125 -2.660156 0.476562 -3.164062 0.78125 -3.5 C 1.09375 -3.84375 1.550781 -4.015625 2.15625 -4.015625 C 2.5625 -4.015625 2.960938 -3.914062 3.359375 -3.71875 L 3.359375 -3.3125 C 2.992188 -3.507812 2.609375 -3.609375 2.203125 -3.609375 C 1.703125 -3.609375 1.335938 -3.476562 1.109375 -3.21875 C 0.878906 -2.957031 0.765625 -2.546875 0.765625 -1.984375 C 0.765625 -1.421875 0.878906 -1.007812 1.109375 -0.75 C 1.335938 -0.488281 1.703125 -0.359375 2.203125 -0.359375 C 2.628906 -0.359375 3.015625 -0.453125 3.359375 -0.640625 L 3.359375 -0.234375 C 2.960938 -0.046875 2.5625 0.046875 2.15625 0.046875 Z M 2.15625 0.046875 "/></g></g></g><g fill="#242424" fill-opacity="1"><g transform="translate(63.588226, 72.996355)"><g><path d="M 1.71875 0.09375 C 1.320312 0.09375 1.015625 -0.00390625 0.796875 -0.203125 C 0.578125 -0.410156 0.46875 -0.707031 0.46875 -1.09375 L 0.46875 -2.96875 L 0.90625 -2.96875 L 0.90625 -1.1875 C 0.90625 -0.882812 0.96875 -0.660156 1.09375 -0.515625 C 1.226562 -0.378906 1.4375 -0.3125 1.71875 -0.3125 C 1.988281 -0.3125 2.191406 -0.378906 2.328125 -0.515625 C 2.460938 -0.660156 2.53125 -0.882812 2.53125 -1.1875 L 2.53125 -2.96875 L 2.953125 -2.96875 L 2.953125 -1.09375 C 2.953125 -0.707031 2.84375 -0.410156 2.625 -0.203125 C 2.414062 -0.00390625 2.113281 0.09375 1.71875 0.09375 Z M 1.71875 0.09375 "/></g></g></g><g fill="#242424" fill-opacity="1"><g transform="translate(67.01709, 72.996355)"><g><path d="M 0.46875 -2.71875 C 0.625 -2.789062 0.820312 -2.859375 1.0625 -2.921875 C 1.3125 -2.984375 1.570312 -3.015625 1.84375 -3.015625 C 1.882812 -3.015625 1.945312 -3.003906 2.03125 -2.984375 L 2.03125 -2.59375 C 1.9375 -2.613281 1.84375 -2.625 1.75 -2.625 C 1.613281 -2.625 1.488281 -2.613281 1.375 -2.59375 C 1.269531 -2.582031 1.113281 -2.554688 0.90625 -2.515625 L 0.90625 0 L 0.46875 0 Z M 0.46875 -2.71875 "/></g></g></g><g fill="#242424" fill-opacity="1"><g transform="translate(69.253564, 72.996355)"><g><path d="M 1.3125 0.09375 C 1.113281 0.09375 0.941406 0.0703125 0.796875 0.03125 C 0.648438 -0.0078125 0.492188 -0.0703125 0.328125 -0.15625 L 0.328125 -0.609375 C 0.523438 -0.492188 0.6875 -0.410156 0.8125 -0.359375 C 0.945312 -0.316406 1.101562 -0.296875 1.28125 -0.296875 C 1.476562 -0.296875 1.640625 -0.335938 1.765625 -0.421875 C 1.890625 -0.515625 1.953125 -0.628906 1.953125 -0.765625 C 1.953125 -0.890625 1.914062 -0.984375 1.84375 -1.046875 C 1.769531 -1.109375 1.648438 -1.171875 1.484375 -1.234375 L 1.328125 -1.296875 C 1.097656 -1.359375 0.921875 -1.414062 0.796875 -1.46875 C 0.679688 -1.519531 0.578125 -1.597656 0.484375 -1.703125 C 0.390625 -1.816406 0.34375 -1.972656 0.34375 -2.171875 C 0.34375 -2.359375 0.390625 -2.515625 0.484375 -2.640625 C 0.585938 -2.765625 0.71875 -2.859375 0.875 -2.921875 C 1.03125 -2.984375 1.195312 -3.015625 1.375 -3.015625 C 1.53125 -3.015625 1.660156 -2.992188 1.765625 -2.953125 C 1.878906 -2.921875 2.03125 -2.863281 2.21875 -2.78125 L 2.21875 -2.359375 C 2.019531 -2.453125 1.867188 -2.519531 1.765625 -2.5625 C 1.660156 -2.601562 1.535156 -2.625 1.390625 -2.625 C 1.222656 -2.625 1.078125 -2.585938 0.953125 -2.515625 C 0.828125 -2.453125 0.765625 -2.359375 0.765625 -2.234375 C 0.765625 -2.128906 0.796875 -2.039062 0.859375 -1.96875 C 0.921875 -1.90625 1 -1.851562 1.09375 -1.8125 C 1.1875 -1.78125 1.3125 -1.742188 1.46875 -1.703125 C 1.664062 -1.640625 1.820312 -1.582031 1.9375 -1.53125 C 2.050781 -1.476562 2.148438 -1.394531 2.234375 -1.28125 C 2.328125 -1.164062 2.375 -1.015625 2.375 -0.828125 C 2.375 -0.617188 2.320312 -0.445312 2.21875 -0.3125 C 2.125 -0.175781 1.992188 -0.0703125 1.828125 0 C 1.660156 0.0625 1.488281 0.09375 1.3125 0.09375 Z M 1.3125 0.09375 "/></g></g></g><g fill="#242424" fill-opacity="1"><g transform="translate(71.958692, 72.996355)"><g><path d="M 1.6875 0.09375 C 1.238281 0.09375 0.898438 -0.0390625 0.671875 -0.3125 C 0.441406 -0.582031 0.328125 -0.96875 0.328125 -1.46875 C 0.328125 -1.976562 0.441406 -2.363281 0.671875 -2.625 C 0.898438 -2.882812 1.238281 -3.015625 1.6875 -3.015625 C 2.144531 -3.015625 2.484375 -2.875 2.703125 -2.59375 C 2.929688 -2.320312 3.046875 -1.945312 3.046875 -1.46875 C 3.046875 -0.976562 2.925781 -0.59375 2.6875 -0.3125 C 2.457031 -0.0390625 2.125 0.09375 1.6875 0.09375 Z M 1.6875 -0.296875 C 2.3125 -0.296875 2.625 -0.6875 2.625 -1.46875 C 2.625 -1.84375 2.550781 -2.128906 2.40625 -2.328125 C 2.257812 -2.523438 2.019531 -2.625 1.6875 -2.625 C 1.0625 -2.625 0.75 -2.238281 0.75 -1.46875 C 0.75 -0.6875 1.0625 -0.296875 1.6875 -0.296875 Z M 1.6875 -0.296875 "/></g></g></g><g fill="#242424" fill-opacity="1"><g transform="translate(75.334166, 72.996355)"><g><path d="M 1.3125 0.09375 C 1.113281 0.09375 0.941406 0.0703125 0.796875 0.03125 C 0.648438 -0.0078125 0.492188 -0.0703125 0.328125 -0.15625 L 0.328125 -0.609375 C 0.523438 -0.492188 0.6875 -0.410156 0.8125 -0.359375 C 0.945312 -0.316406 1.101562 -0.296875 1.28125 -0.296875 C 1.476562 -0.296875 1.640625 -0.335938 1.765625 -0.421875 C 1.890625 -0.515625 1.953125 -0.628906 1.953125 -0.765625 C 1.953125 -0.890625 1.914062 -0.984375 1.84375 -1.046875 C 1.769531 -1.109375 1.648438 -1.171875 1.484375 -1.234375 L 1.328125 -1.296875 C 1.097656 -1.359375 0.921875 -1.414062 0.796875 -1.46875 C 0.679688 -1.519531 0.578125 -1.597656 0.484375 -1.703125 C 0.390625 -1.816406 0.34375 -1.972656 0.34375 -2.171875 C 0.34375 -2.359375 0.390625 -2.515625 0.484375 -2.640625 C 0.585938 -2.765625 0.71875 -2.859375 0.875 -2.921875 C 1.03125 -2.984375 1.195312 -3.015625 1.375 -3.015625 C 1.53125 -3.015625 1.660156 -2.992188 1.765625 -2.953125 C 1.878906 -2.921875 2.03125 -2.863281 2.21875 -2.78125 L 2.21875 -2.359375 C 2.019531 -2.453125 1.867188 -2.519531 1.765625 -2.5625 C 1.660156 -2.601562 1.535156 -2.625 1.390625 -2.625 C 1.222656 -2.625 1.078125 -2.585938 0.953125 -2.515625 C 0.828125 -2.453125 0.765625 -2.359375 0.765625 -2.234375 C 0.765625 -2.128906 0.796875 -2.039062 0.859375 -1.96875 C 0.921875 -1.90625 1 -1.851562 1.09375 -1.8125 C 1.1875 -1.78125 1.3125 -1.742188 1.46875 -1.703125 C 1.664062 -1.640625 1.820312 -1.582031 1.9375 -1.53125 C 2.050781 -1.476562 2.148438 -1.394531 2.234375 -1.28125 C 2.328125 -1.164062 2.375 -1.015625 2.375 -0.828125 C 2.375 -0.617188 2.320312 -0.445312 2.21875 -0.3125 C 2.125 -0.175781 1.992188 -0.0703125 1.828125 0 C 1.660156 0.0625 1.488281 0.09375 1.3125 0.09375 Z M 1.3125 0.09375 "/></g></g></g><g fill="#242424" fill-opacity="1"><g transform="translate(78.039294, 72.996355)"><g/></g></g><g fill="#242424" fill-opacity="1"><g transform="translate(79.75966, 72.996355)"><g><path d="M 1.671875 -3.015625 C 2.066406 -3.015625 2.394531 -2.882812 2.65625 -2.625 C 2.914062 -2.375 3.046875 -1.96875 3.046875 -1.40625 C 3.046875 -0.945312 2.921875 -0.582031 2.671875 -0.3125 C 2.429688 -0.0507812 2.085938 0.078125 1.640625 0.078125 C 1.535156 0.078125 1.414062 0.0625 1.28125 0.03125 C 1.144531 0 1.019531 -0.0390625 0.90625 -0.09375 L 0.90625 1.28125 L 0.46875 1.28125 L 0.46875 -2.421875 C 0.46875 -2.640625 0.585938 -2.789062 0.828125 -2.875 C 1.066406 -2.96875 1.347656 -3.015625 1.671875 -3.015625 Z M 1.640625 -0.3125 C 1.953125 -0.3125 2.1875 -0.410156 2.34375 -0.609375 C 2.507812 -0.804688 2.59375 -1.070312 2.59375 -1.40625 C 2.59375 -1.78125 2.523438 -2.078125 2.390625 -2.296875 C 2.265625 -2.515625 2.023438 -2.625 1.671875 -2.625 C 1.453125 -2.625 1.269531 -2.597656 1.125 -2.546875 C 0.976562 -2.492188 0.90625 -2.425781 0.90625 -2.34375 L 0.90625 -0.515625 C 1.144531 -0.378906 1.390625 -0.3125 1.640625 -0.3125 Z M 1.640625 -0.3125 "/></g></g></g><g fill="#242424" fill-opacity="1"><g transform="translate(83.135133, 72.996355)"><g><path d="M 1.734375 -3.015625 C 2.066406 -3.015625 2.328125 -2.929688 2.515625 -2.765625 C 2.710938 -2.609375 2.8125 -2.375 2.8125 -2.0625 L 2.8125 -0.625 C 2.8125 -0.34375 2.691406 -0.148438 2.453125 -0.046875 C 2.222656 0.046875 1.90625 0.09375 1.5 0.09375 C 1.1875 0.09375 0.914062 0.0234375 0.6875 -0.109375 C 0.46875 -0.253906 0.359375 -0.488281 0.359375 -0.8125 C 0.359375 -1.164062 0.453125 -1.421875 0.640625 -1.578125 C 0.835938 -1.742188 1.109375 -1.828125 1.453125 -1.828125 C 1.835938 -1.828125 2.144531 -1.753906 2.375 -1.609375 L 2.375 -1.96875 C 2.375 -2.40625 2.117188 -2.625 1.609375 -2.625 C 1.429688 -2.625 1.253906 -2.597656 1.078125 -2.546875 C 0.910156 -2.503906 0.765625 -2.4375 0.640625 -2.34375 L 0.640625 -2.765625 C 0.765625 -2.847656 0.925781 -2.910156 1.125 -2.953125 C 1.332031 -2.992188 1.535156 -3.015625 1.734375 -3.015625 Z M 1.59375 -0.296875 C 1.875 -0.296875 2.070312 -0.316406 2.1875 -0.359375 C 2.3125 -0.398438 2.375 -0.484375 2.375 -0.609375 L 2.375 -1.265625 C 2.269531 -1.316406 2.144531 -1.359375 2 -1.390625 C 1.863281 -1.421875 1.71875 -1.4375 1.5625 -1.4375 C 1.3125 -1.4375 1.117188 -1.390625 0.984375 -1.296875 C 0.847656 -1.203125 0.78125 -1.0625 0.78125 -0.875 C 0.78125 -0.664062 0.859375 -0.515625 1.015625 -0.421875 C 1.179688 -0.335938 1.375 -0.296875 1.59375 -0.296875 Z M 1.59375 -0.296875 "/></g></g></g><g fill="#242424" fill-opacity="1"><g transform="translate(86.421619, 72.996355)"><g><path d="M 0.46875 -2.71875 C 0.625 -2.789062 0.820312 -2.859375 1.0625 -2.921875 C 1.3125 -2.984375 1.570312 -3.015625 1.84375 -3.015625 C 1.882812 -3.015625 1.945312 -3.003906 2.03125 -2.984375 L 2.03125 -2.59375 C 1.9375 -2.613281 1.84375 -2.625 1.75 -2.625 C 1.613281 -2.625 1.488281 -2.613281 1.375 -2.59375 C 1.269531 -2.582031 1.113281 -2.554688 0.90625 -2.515625 L 0.90625 0 L 0.46875 0 Z M 0.46875 -2.71875 "/></g></g></g><g fill="#242424" fill-opacity="1"><g transform="translate(88.658093, 72.996355)"><g><path d="M 1.734375 -3.015625 C 2.066406 -3.015625 2.328125 -2.929688 2.515625 -2.765625 C 2.710938 -2.609375 2.8125 -2.375 2.8125 -2.0625 L 2.8125 -0.625 C 2.8125 -0.34375 2.691406 -0.148438 2.453125 -0.046875 C 2.222656 0.046875 1.90625 0.09375 1.5 0.09375 C 1.1875 0.09375 0.914062 0.0234375 0.6875 -0.109375 C 0.46875 -0.253906 0.359375 -0.488281 0.359375 -0.8125 C 0.359375 -1.164062 0.453125 -1.421875 0.640625 -1.578125 C 0.835938 -1.742188 1.109375 -1.828125 1.453125 -1.828125 C 1.835938 -1.828125 2.144531 -1.753906 2.375 -1.609375 L 2.375 -1.96875 C 2.375 -2.40625 2.117188 -2.625 1.609375 -2.625 C 1.429688 -2.625 1.253906 -2.597656 1.078125 -2.546875 C 0.910156 -2.503906 0.765625 -2.4375 0.640625 -2.34375 L 0.640625 -2.765625 C 0.765625 -2.847656 0.925781 -2.910156 1.125 -2.953125 C 1.332031 -2.992188 1.535156 -3.015625 1.734375 -3.015625 Z M 1.59375 -0.296875 C 1.875 -0.296875 2.070312 -0.316406 2.1875 -0.359375 C 2.3125 -0.398438 2.375 -0.484375 2.375 -0.609375 L 2.375 -1.265625 C 2.269531 -1.316406 2.144531 -1.359375 2 -1.390625 C 1.863281 -1.421875 1.71875 -1.4375 1.5625 -1.4375 C 1.3125 -1.4375 1.117188 -1.390625 0.984375 -1.296875 C 0.847656 -1.203125 0.78125 -1.0625 0.78125 -0.875 C 0.78125 -0.664062 0.859375 -0.515625 1.015625 -0.421875 C 1.179688 -0.335938 1.375 -0.296875 1.59375 -0.296875 Z M 1.59375 -0.296875 "/></g></g></g><g fill="#242424" fill-opacity="1"><g transform="translate(91.944579, 72.996355)"><g/></g></g><g fill="#242424" fill-opacity="1"><g transform="translate(93.664944, 72.996355)"><g><path d="M 2.890625 0 L 1.734375 -1.640625 L 0.59375 0 L 0.078125 0 L 1.484375 -2 L 0.109375 -3.953125 L 0.625 -3.953125 L 1.734375 -2.375 L 2.859375 -3.953125 L 3.375 -3.953125 L 2 -2 L 3.40625 0 Z M 2.890625 0 "/></g></g></g><g fill="#242424" fill-opacity="1"><g transform="translate(97.159066, 72.996355)"><g><path d="M 1.734375 -3.015625 C 2.066406 -3.015625 2.328125 -2.929688 2.515625 -2.765625 C 2.710938 -2.609375 2.8125 -2.375 2.8125 -2.0625 L 2.8125 -0.625 C 2.8125 -0.34375 2.691406 -0.148438 2.453125 -0.046875 C 2.222656 0.046875 1.90625 0.09375 1.5 0.09375 C 1.1875 0.09375 0.914062 0.0234375 0.6875 -0.109375 C 0.46875 -0.253906 0.359375 -0.488281 0.359375 -0.8125 C 0.359375 -1.164062 0.453125 -1.421875 0.640625 -1.578125 C 0.835938 -1.742188 1.109375 -1.828125 1.453125 -1.828125 C 1.835938 -1.828125 2.144531 -1.753906 2.375 -1.609375 L 2.375 -1.96875 C 2.375 -2.40625 2.117188 -2.625 1.609375 -2.625 C 1.429688 -2.625 1.253906 -2.597656 1.078125 -2.546875 C 0.910156 -2.503906 0.765625 -2.4375 0.640625 -2.34375 L 0.640625 -2.765625 C 0.765625 -2.847656 0.925781 -2.910156 1.125 -2.953125 C 1.332031 -2.992188 1.535156 -3.015625 1.734375 -3.015625 Z M 1.59375 -0.296875 C 1.875 -0.296875 2.070312 -0.316406 2.1875 -0.359375 C 2.3125 -0.398438 2.375 -0.484375 2.375 -0.609375 L 2.375 -1.265625 C 2.269531 -1.316406 2.144531 -1.359375 2 -1.390625 C 1.863281 -1.421875 1.71875 -1.4375 1.5625 -1.4375 C 1.3125 -1.4375 1.117188 -1.390625 0.984375 -1.296875 C 0.847656 -1.203125 0.78125 -1.0625 0.78125 -0.875 C 0.78125 -0.664062 0.859375 -0.515625 1.015625 -0.421875 C 1.179688 -0.335938 1.375 -0.296875 1.59375 -0.296875 Z M 1.59375 -0.296875 "/></g></g></g><g fill="#242424" fill-opacity="1"><g transform="translate(100.445552, 72.996355)"><g><path d="M 2.90625 -4.21875 L 2.90625 -0.515625 C 2.90625 -0.304688 2.773438 -0.148438 2.515625 -0.046875 C 2.265625 0.046875 1.988281 0.09375 1.6875 0.09375 C 1.320312 0.09375 1.003906 -0.0234375 0.734375 -0.265625 C 0.460938 -0.503906 0.328125 -0.921875 0.328125 -1.515625 C 0.328125 -1.984375 0.441406 -2.347656 0.671875 -2.609375 C 0.898438 -2.878906 1.238281 -3.015625 1.6875 -3.015625 C 1.78125 -3.015625 1.90625 -2.992188 2.0625 -2.953125 C 2.21875 -2.921875 2.351562 -2.882812 2.46875 -2.84375 L 2.46875 -4.21875 Z M 2.46875 -2.40625 C 2.351562 -2.476562 2.222656 -2.53125 2.078125 -2.5625 C 1.941406 -2.601562 1.8125 -2.625 1.6875 -2.625 C 1.375 -2.625 1.144531 -2.523438 1 -2.328125 C 0.851562 -2.128906 0.78125 -1.859375 0.78125 -1.515625 C 0.78125 -1.148438 0.847656 -0.851562 0.984375 -0.625 C 1.117188 -0.40625 1.359375 -0.296875 1.703125 -0.296875 C 1.921875 -0.296875 2.101562 -0.320312 2.25 -0.375 C 2.394531 -0.425781 2.46875 -0.484375 2.46875 -0.546875 Z M 2.46875 -2.40625 "/></g></g></g><g fill="#242424" fill-opacity="1"><g transform="translate(103.821026, 72.996355)"><g><path d="M 0.46875 -2.71875 C 0.625 -2.789062 0.820312 -2.859375 1.0625 -2.921875 C 1.3125 -2.984375 1.570312 -3.015625 1.84375 -3.015625 C 1.882812 -3.015625 1.945312 -3.003906 2.03125 -2.984375 L 2.03125 -2.59375 C 1.9375 -2.613281 1.84375 -2.625 1.75 -2.625 C 1.613281 -2.625 1.488281 -2.613281 1.375 -2.59375 C 1.269531 -2.582031 1.113281 -2.554688 0.90625 -2.515625 L 0.90625 0 L 0.46875 0 Z M 0.46875 -2.71875 "/></g></g></g><g fill="#242424" fill-opacity="1"><g transform="translate(106.0575, 72.996355)"><g><path d="M 1.625 -3.015625 C 2.070312 -3.015625 2.398438 -2.867188 2.609375 -2.578125 C 2.828125 -2.285156 2.929688 -1.894531 2.921875 -1.40625 L 0.765625 -1.40625 C 0.765625 -1.050781 0.847656 -0.773438 1.015625 -0.578125 C 1.179688 -0.390625 1.414062 -0.296875 1.71875 -0.296875 C 2.113281 -0.296875 2.453125 -0.382812 2.734375 -0.5625 L 2.734375 -0.125 C 2.441406 0.0195312 2.097656 0.09375 1.703125 0.09375 C 1.265625 0.09375 0.925781 -0.0390625 0.6875 -0.3125 C 0.445312 -0.582031 0.328125 -0.972656 0.328125 -1.484375 C 0.328125 -1.984375 0.441406 -2.363281 0.671875 -2.625 C 0.898438 -2.882812 1.21875 -3.015625 1.625 -3.015625 Z M 1.625 -2.625 C 1.363281 -2.625 1.164062 -2.5625 1.03125 -2.4375 C 0.894531 -2.320312 0.8125 -2.109375 0.78125 -1.796875 L 2.46875 -1.796875 C 2.445312 -2.078125 2.367188 -2.285156 2.234375 -2.421875 C 2.097656 -2.554688 1.894531 -2.625 1.625 -2.625 Z M 1.625 -2.625 "/></g></g></g><g fill="#242424" fill-opacity="1"><g transform="translate(109.30246, 72.996355)"><g><path d="M 2.4375 -2.59375 L 0.765625 -0.375 L 2.4375 -0.375 L 2.4375 0 L 0.265625 0 L 0.265625 -0.390625 L 1.921875 -2.59375 L 0.3125 -2.59375 L 0.3125 -2.96875 L 2.4375 -2.96875 Z M 2.4375 -2.59375 "/></g></g></g></svg>