<svg xmlns="http://www.w3.org/2000/svg" width="434.667" height="434.667" viewBox="0 0 326 326"><path d="M155.8 1.1c-8.4.9-16.1 4.4-24.1 10.8C125.6 16.8 67 75 67 76.1c0 .4 4.4.9 9.8 1.1 11 .6 17.2 2.5 25.1 7.5 3 2 17 15 31.1 29 14 14 26.4 26.1 27.5 26.9 1.1.8 3.5 1.4 5.4 1.4 3.1 0 5.7-2.4 32-28.4 30.1-29.9 32.8-32 44.8-35.1 3.1-.8 8.1-1.5 11-1.5 2.9 0 5.3-.4 5.3-.8 0-1.7-64.7-65.1-69.5-68.1-9.1-5.8-21.2-8.3-33.7-7zM171.1 9c11.5 2.2 14.6 4.5 43.7 33.4C229.7 57.2 242 69.8 242 70.2c0 .4-.6.8-1.4.8-2.6 0-12.1 4.4-17.6 8.1-3 2.1-17 15.3-31 29.3-14 14.1-26.2 25.6-27 25.6-.9 0-13.2-11.8-27.5-26.1-15-15.1-28.5-27.8-32-30.1-3.3-2.2-9.3-4.9-13.2-6.1-4-1.1-7.3-2.4-7.3-2.7 0-1.6 53-53 57-55.3 8.7-5 18.7-6.6 29.1-4.7z"></path><path d="M31.6 111.4c-11.4 11.5-22.1 23-23.7 25.5-8.2 12.9-9.3 34.6-2.4 48.1 2.9 5.8 8 11.6 27.6 31.5l18.8 19 16.3-.6c14-.4 17-.8 21.3-2.7 3.9-1.8 11-8.3 33-30.2 30.4-30.3 32.6-32 42.5-32 9.8 0 12.1 1.8 41.5 30.9 14.9 14.7 28.4 27.7 30 28.8 5.5 3.8 13 5.3 25.9 5.3h12.1l17.6-17.8c9.7-9.7 19.9-20.5 22.7-23.9 12.7-15.7 14.1-38 3.5-56.3-1.5-2.5-11.9-13.8-23.1-25.3L274.6 91h-12.2c-9.5 0-13.7.5-19 2.1l-6.9 2.1-28 27.7c-15.4 15.3-29.5 28.8-31.3 30.1-4.6 3.1-14.6 3.9-20.5 1.6-3.4-1.3-10.2-7.4-29.9-26.9-14-14-27.5-27-30-29-7.7-6.3-10.5-7.1-28.3-7.7l-16-.5-20.9 20.9zM87 101.2c3.1 1.5 12.9 10.5 32.3 29.7 18.1 18 29.3 28.4 32.3 29.9l4.6 2.4-5.2 2.4c-4.1 1.9-11.4 8.5-33.9 30.7-23.7 23.5-29.3 28.5-32.7 29.5-2.3.7-10 1.2-17.1 1.2h-13l-19.5-19.8c-21.3-21.7-24-25.6-26-37.6-.8-4.8-.8-8.4 0-13.2 2-12.1 4.7-16 26.5-38.1l19.9-20.2 13.7.5c11.1.4 14.4.9 18.1 2.6zm204.1 17.5c21.3 21.6 24.1 25.6 26.2 37.7.8 4.9.8 8.3 0 13.2-2.1 12.1-4.9 16.1-26.2 37.7L271.7 227h-11.6c-9.9 0-12.3-.4-16.4-2.3-3.5-1.6-11.9-9.3-32-29.4-21.9-21.8-28.3-27.7-32.6-29.7l-5.4-2.5 4.9-2.2c3.7-1.7 11.8-9.1 33.5-30.6 15.7-15.6 28.7-28.3 29-28.3.2 0 2.2-.7 4.4-1.5 2.5-.9 8.1-1.4 15.1-1.5h11.1l19.4 19.7z"></path><path d="M160 185.6c-1.4.9-14.4 13.5-29 27.9-14.6 14.5-28.3 27.4-30.6 28.8-6.5 4-13.2 5.9-23.9 6.6l-10 .7 33 33c20.2 20.3 34.9 34.2 37.9 35.9 8.3 4.8 14.9 6.5 25.6 6.5 10.5 0 17.5-1.8 25.9-6.6 4.3-2.5 70.1-66.9 70.1-68.6 0-.4-2-.8-4.4-.8-6.9 0-14.6-1.8-21.6-5.1-5.6-2.6-9.9-6.4-33.5-29.8-14.8-14.7-28.1-27.5-29.5-28.5-3.1-2-6.9-2.1-10 0zm34.4 34.2c29 28.7 31.5 30.7 43.4 34.4 2.3.7 4.2 1.5 4.2 1.8 0 .3-12.3 12.8-27.2 27.6-30 29.8-32.5 31.6-45.7 33.7-5.2.8-8.7.8-13.3-.1-12.3-2.3-15.1-4.4-44.6-33.6l-27.2-27 7.3-2.1c4-1.1 9.5-3.4 12.3-4.9 2.9-1.7 16.1-14.1 32.5-30.2 15.1-15.1 28.2-27.4 28.9-27.4.8 0 14 12.5 29.4 27.8z"></path></svg>