<svg xmlns="http://www.w3.org/2000/svg" width="50" height="px" viewBox="0 0 50 50"><path style="stroke:none;fill-rule:nonzero;fill:#000;fill-opacity:1" d="M38.77 19.086V13.77C38.77 6.176 32.594 0 25 0c-7.594 0-13.77 6.176-13.77 13.77v5.316a4.271 4.271 0 0 0-3.457 4.187v9.5C7.773 42.273 15.503 50 25 50c9.496 0 17.227-7.727 17.227-17.227v-9.5a4.271 4.271 0 0 0-3.457-4.187ZM25 1.62c6.7 0 12.148 5.45 12.148 12.149v5.238h-1.836V13.77c0-5.688-4.624-10.313-10.312-10.313S14.687 8.082 14.687 13.77v5.238h-1.835V13.77C12.852 7.07 18.3 1.62 25 1.62Zm-8.691 17.387V13.77c0-4.793 3.898-8.696 8.691-8.696 4.793 0 8.691 3.903 8.691 8.696v5.238Zm24.296 13.765c0 8.606-7 15.606-15.605 15.606s-15.605-7-15.605-15.606v-9.5a2.65 2.65 0 0 1 2.648-2.648h25.914a2.65 2.65 0 0 1 2.648 2.648Zm0 0"></path><path style="stroke:none;fill-rule:nonzero;fill:#000;fill-opacity:1" d="M29.266 31.91c0-1.308-.59-2.527-1.614-3.34a4.297 4.297 0 0 0-3.664-.808 4.231 4.231 0 0 0-3.125 3.09 4.27 4.27 0 0 0 1.532 4.421l-.633 4.157a1.673 1.673 0 0 0 1.652 1.925h.008l3.172-.011c.484 0 .949-.215 1.265-.582.317-.371.457-.86.383-1.344l-.637-4.148a4.264 4.264 0 0 0 1.66-3.36Zm-2.946 2.277a.815.815 0 0 0-.394.825l.715 4.652c0 .008.004.023-.012.043-.02.02-.035.02-.043.02l-3.172.011c-.008 0-.023 0-.039-.02-.016-.019-.016-.034-.016-.042l.715-4.664a.808.808 0 0 0-.394-.825c-1.043-.605-1.532-1.765-1.242-2.949a2.634 2.634 0 0 1 1.917-1.898c.22-.05.438-.074.649-.074.598 0 1.164.195 1.64.574.637.504 1 1.258 1 2.07 0 .945-.496 1.793-1.324 2.277Zm0 0"></path></svg>